<svg width="459" height="423" viewBox="0 0 459 423" fill="none" xmlns="http://www.w3.org/2000/svg">
<g opacity="0.8" filter="url(#filter0_f)">
<path fill-rule="evenodd" clip-rule="evenodd" d="M130.867 130.971C132.549 117.267 145.023 107.522 158.727 109.204L336.153 130.99C349.858 132.672 359.603 145.146 357.92 158.85L340.549 300.326C338.866 314.03 326.393 323.776 312.689 322.093L135.262 300.308C121.558 298.625 111.813 286.152 113.496 272.447L130.867 130.971Z" fill="#323A5C"/>
</g>
<g filter="url(#filter1_d)">
<path fill-rule="evenodd" clip-rule="evenodd" d="M114.624 56.8957C115.566 49.2213 122.551 43.7639 130.226 44.7062L379.786 75.3483C387.46 76.2906 392.918 83.2757 391.975 90.9501L366.158 301.219C365.215 308.893 358.23 314.35 350.556 313.408L100.996 282.766C93.3214 281.824 87.864 274.839 88.8063 267.164L114.624 56.8957Z" fill="#333333"/>
<mask id="mask0" mask-type="alpha" maskUnits="userSpaceOnUse" x="87" y="43" width="307" height="273">
<path fill-rule="evenodd" clip-rule="evenodd" d="M114.624 56.8957C115.566 49.2213 122.551 43.7639 130.226 44.7062L379.786 75.3483C387.46 76.2906 392.918 83.2757 391.975 90.9501L366.158 301.219C365.215 308.893 358.23 314.35 350.556 313.408L100.996 282.766C93.3214 281.824 87.864 274.839 88.8063 267.164L114.624 56.8957Z" fill="white"/>
</mask>
<g mask="url(#mask0)">
<rect opacity="0.1" x="116.33" y="43" width="279.434" height="23.2862" transform="rotate(7 116.33 43)" fill="#D8D8D8"/>
</g>
<rect x="142.557" y="84.389" width="25.2669" height="6.90933" rx="3.45466" transform="rotate(7 142.557 84.389)" fill="#B670CB"/>
<rect x="203.92" y="91.9234" width="25.2669" height="6.90933" rx="3.45466" transform="rotate(7 203.92 91.9234)" fill="#E5C07A"/>
<path fill-rule="evenodd" clip-rule="evenodd" d="M250.454 101.118C250.687 99.224 252.41 97.8773 254.304 98.1099L272.525 100.347C274.419 100.58 275.765 102.303 275.533 104.197C275.3 106.091 273.577 107.437 271.683 107.205L253.462 104.968C251.568 104.735 250.222 103.011 250.454 101.118Z" fill="#98C278"/>
<path fill-rule="evenodd" clip-rule="evenodd" d="M185.357 93.1248C185.589 91.231 187.313 89.8844 189.207 90.1169L196.756 91.0438C198.649 91.2763 199.996 93 199.763 94.8937C199.531 96.7875 197.807 98.1341 195.913 97.9016L188.364 96.9747C186.471 96.7422 185.124 95.0185 185.357 93.1248Z" fill="#B670CB"/>
<path fill-rule="evenodd" clip-rule="evenodd" d="M232.312 98.8902C232.545 96.9965 234.268 95.6498 236.162 95.8823L243.711 96.8092C245.605 97.0417 246.952 98.7654 246.719 100.659C246.487 102.553 244.763 103.9 242.869 103.667L235.32 102.74C233.426 102.508 232.08 100.784 232.312 98.8902Z" fill="#B670CB"/>
<rect x="171.371" y="87.9269" width="10.7519" height="6.90933" rx="3.45466" transform="rotate(7 171.371 87.9269)" fill="#57B6C2"/>
<rect x="178.073" y="271.549" width="43.0076" height="6.90933" rx="3.45466" transform="rotate(7 178.073 271.549)" fill="#57B6C2"/>
<rect x="141.189" y="95.533" width="25.2669" height="6.90933" rx="3.45466" transform="rotate(7 141.189 95.533)" fill="#B670CB"/>
<path fill-rule="evenodd" clip-rule="evenodd" d="M169.581 102.5C169.814 100.606 171.538 99.2594 173.431 99.4919L191.652 101.729C193.546 101.962 194.893 103.685 194.66 105.579C194.428 107.473 192.704 108.819 190.81 108.587L172.589 106.35C170.696 106.117 169.349 104.394 169.581 102.5Z" fill="#E5C07A"/>
<path fill-rule="evenodd" clip-rule="evenodd" d="M216.537 108.265C216.77 106.372 218.493 105.025 220.387 105.257L238.608 107.495C240.502 107.727 241.848 109.451 241.616 111.345C241.383 113.238 239.66 114.585 237.766 114.352L219.545 112.115C217.651 111.883 216.305 110.159 216.537 108.265Z" fill="#98C278"/>
<path fill-rule="evenodd" clip-rule="evenodd" d="M198.395 106.038C198.628 104.144 200.351 102.797 202.245 103.03L209.794 103.957C211.688 104.189 213.035 105.913 212.802 107.807C212.569 109.7 210.846 111.047 208.952 110.815L201.403 109.888C199.509 109.655 198.163 107.931 198.395 106.038Z" fill="#B670CB"/>
<path fill-rule="evenodd" clip-rule="evenodd" d="M173.808 182.767C174.041 180.873 175.764 179.526 177.658 179.759L195.879 181.996C197.773 182.229 199.119 183.952 198.887 185.846C198.654 187.74 196.931 189.086 195.037 188.854L176.816 186.617C174.922 186.384 173.576 184.66 173.808 182.767Z" fill="#E5C07A"/>
<path fill-rule="evenodd" clip-rule="evenodd" d="M171.072 205.055C171.304 203.161 173.028 201.814 174.922 202.047L193.142 204.284C195.036 204.517 196.383 206.24 196.15 208.134C195.918 210.028 194.194 211.374 192.3 211.142L174.08 208.905C172.186 208.672 170.839 206.948 171.072 205.055Z" fill="#E5C07A"/>
<rect x="203.043" y="182.876" width="14.5151" height="6.90933" rx="3.45466" transform="rotate(7 203.043 182.876)" fill="#CD9765"/>
<rect x="221.185" y="185.103" width="62.8986" height="6.90933" rx="3.45466" transform="rotate(7 221.185 185.103)" fill="#98C278"/>
<rect x="138.384" y="118.377" width="25.2669" height="6.90933" rx="3.45466" transform="rotate(7 138.384 118.377)" fill="#B670CB"/>
<rect x="120.445" y="264.473" width="25.2669" height="6.90933" rx="3.45466" transform="rotate(7 120.445 264.473)" fill="#B670CB"/>
<rect x="149.259" y="268.011" width="25.2669" height="6.90933" rx="3.45466" transform="rotate(7 149.259 268.011)" fill="#B670CB"/>
<rect x="156.991" y="143.285" width="25.2669" height="6.90933" rx="3.45466" transform="rotate(7 156.991 143.285)" fill="#B670CB"/>
<rect x="167.198" y="121.915" width="25.2669" height="6.90933" rx="3.45466" transform="rotate(7 167.198 121.915)" fill="#E5C07A"/>
<path fill-rule="evenodd" clip-rule="evenodd" d="M273.164 286.705C273.397 284.811 275.12 283.465 277.014 283.697L289.899 285.279C291.793 285.512 293.139 287.235 292.907 289.129C292.674 291.023 290.951 292.37 289.057 292.137L276.172 290.555C274.278 290.322 272.932 288.599 273.164 286.705Z" fill="#E5C07A"/>
<rect x="214.153" y="127.68" width="25.2669" height="6.90933" rx="3.45466" transform="rotate(7 214.153 127.68)" fill="#E5C07A"/>
<rect x="242.967" y="131.218" width="25.2669" height="6.90933" rx="3.45466" transform="rotate(7 242.967 131.218)" fill="#D56972"/>
<path fill-rule="evenodd" clip-rule="evenodd" d="M147.266 134.26C147.499 132.366 149.222 131.019 151.116 131.252L169.337 133.489C171.231 133.722 172.577 135.445 172.345 137.339C172.112 139.233 170.389 140.58 168.495 140.347L150.274 138.11C148.38 137.877 147.034 136.154 147.266 134.26Z" fill="#D56972"/>
<rect x="166.294" y="155.74" width="25.2669" height="6.90933" rx="3.45466" transform="rotate(7 166.294 155.74)" fill="#D56972"/>
<rect x="159.453" y="211.459" width="25.2669" height="6.90933" rx="3.45466" transform="rotate(7 159.453 211.459)" fill="#D56972"/>
<path fill-rule="evenodd" clip-rule="evenodd" d="M175.177 171.623C175.409 169.729 177.133 168.382 179.026 168.615L186.575 169.542C188.469 169.774 189.816 171.498 189.583 173.392C189.351 175.285 187.627 176.632 185.733 176.4L178.184 175.473C176.291 175.24 174.944 173.517 175.177 171.623Z" fill="#D56972"/>
<path fill-rule="evenodd" clip-rule="evenodd" d="M256.282 181.581C256.514 179.688 258.238 178.341 260.132 178.573L267.681 179.5C269.575 179.733 270.921 181.456 270.689 183.35C270.456 185.244 268.733 186.591 266.839 186.358L259.29 185.431C257.396 185.199 256.049 183.475 256.282 181.581Z" fill="#D56972"/>
<path fill-rule="evenodd" clip-rule="evenodd" d="M193.318 173.85C193.551 171.957 195.275 170.61 197.168 170.842L204.717 171.769C206.611 172.002 207.958 173.726 207.725 175.619C207.493 177.513 205.769 178.86 203.875 178.627L196.326 177.7C194.433 177.468 193.086 175.744 193.318 173.85Z" fill="#A7AEBB"/>
<path fill-rule="evenodd" clip-rule="evenodd" d="M224.074 280.678C224.306 278.784 226.03 277.437 227.924 277.67L235.473 278.597C237.367 278.829 238.713 280.553 238.481 282.446C238.248 284.34 236.525 285.687 234.631 285.454L227.082 284.527C225.188 284.295 223.841 282.571 224.074 280.678Z" fill="#A7AEBB"/>
<rect x="185.804" y="146.823" width="9.13911" height="6.90933" rx="3.45466" transform="rotate(7 185.804 146.823)" fill="#A7AEBB"/>
<path fill-rule="evenodd" clip-rule="evenodd" d="M194.222 140.025C194.454 138.132 196.178 136.785 198.072 137.017L200.285 137.289C202.179 137.522 203.525 139.245 203.293 141.139C203.06 143.033 201.337 144.38 199.443 144.147L197.23 143.875C195.336 143.643 193.989 141.919 194.222 140.025Z" fill="#A7AEBB"/>
<rect x="147.413" y="221.293" width="9.13911" height="6.90933" rx="3.45466" transform="rotate(7 147.413 221.293)" fill="#A7AEBB"/>
<path fill-rule="evenodd" clip-rule="evenodd" d="M134.952 234.556C135.184 232.662 136.908 231.315 138.801 231.548L141.015 231.819C142.908 232.052 144.255 233.776 144.023 235.669C143.79 237.563 142.066 238.91 140.173 238.677L137.959 238.406C136.066 238.173 134.719 236.449 134.952 234.556Z" fill="#A7AEBB"/>
<path fill-rule="evenodd" clip-rule="evenodd" d="M122.911 244.389C123.144 242.496 124.868 241.149 126.761 241.381L128.974 241.653C130.868 241.886 132.215 243.609 131.982 245.503C131.75 247.397 130.026 248.743 128.132 248.511L125.919 248.239C124.026 248.007 122.679 246.283 122.911 244.389Z" fill="#A7AEBB"/>
<rect x="271.781" y="134.756" width="9.13911" height="6.90933" rx="3.45466" transform="rotate(7 271.781 134.756)" fill="#A7AEBB"/>
<rect x="211.881" y="172.649" width="41.3948" height="6.90933" rx="3.45466" transform="rotate(7 211.881 172.649)" fill="#A7AEBB"/>
<path fill-rule="evenodd" clip-rule="evenodd" d="M183.112 195.221C183.344 193.327 185.068 191.981 186.962 192.213L221.19 196.416C223.084 196.648 224.43 198.372 224.198 200.266C223.965 202.16 222.242 203.506 220.348 203.274L186.12 199.071C184.226 198.838 182.879 197.115 183.112 195.221Z" fill="#A7AEBB"/>
<rect x="196.011" y="125.452" width="14.5151" height="6.90933" rx="3.45466" transform="rotate(7 196.011 125.452)" fill="#B670CB"/>
<path fill-rule="evenodd" clip-rule="evenodd" d="M176.08 137.798C176.312 135.904 178.036 134.557 179.93 134.79L187.479 135.717C189.373 135.949 190.719 137.673 190.487 139.567C190.254 141.46 188.531 142.807 186.637 142.575L179.088 141.648C177.194 141.415 175.847 139.692 176.08 137.798Z" fill="#B670CB"/>
<path fill-rule="evenodd" clip-rule="evenodd" d="M260.358 285.133C260.59 283.239 262.314 281.892 264.208 282.125L266.421 282.396C268.315 282.629 269.661 284.353 269.429 286.246C269.196 288.14 267.473 289.487 265.579 289.254L263.366 288.983C261.472 288.75 260.125 287.026 260.358 285.133Z" fill="#A7AEBB"/>
<rect x="242.637" y="279.476" width="14.5151" height="6.90933" rx="3.45466" transform="rotate(7 242.637 279.476)" fill="#B670CB"/>
<rect x="123.903" y="82.0987" width="12.528" height="6.90933" rx="3.45466" transform="rotate(7 123.903 82.0987)" fill="#434343"/>
<path fill-rule="evenodd" clip-rule="evenodd" d="M122.114 96.6715C122.347 94.7778 124.07 93.4311 125.964 93.6636L131.541 94.3484C133.434 94.5809 134.781 96.3046 134.549 98.1983C134.316 100.092 132.592 101.439 130.699 101.206L125.122 100.521C123.228 100.289 121.881 98.5653 122.114 96.6715Z" fill="#434343"/>
<path fill-rule="evenodd" clip-rule="evenodd" d="M120.74 107.863C120.972 105.969 122.696 104.622 124.59 104.855L130.167 105.54C132.06 105.772 133.407 107.496 133.174 109.389C132.942 111.283 131.218 112.63 129.325 112.397L123.748 111.713C121.854 111.48 120.507 109.756 120.74 107.863Z" fill="#434343"/>
<rect x="112.889" y="171.806" width="12.528" height="6.90933" rx="3.45466" transform="rotate(7 112.889 171.806)" fill="#434343"/>
<rect x="110.152" y="194.094" width="12.528" height="6.90933" rx="3.45466" transform="rotate(7 110.152 194.094)" fill="#434343"/>
<rect x="119.73" y="116.086" width="12.528" height="6.90933" rx="3.45466" transform="rotate(7 119.73 116.086)" fill="#434343"/>
<rect x="101.792" y="262.183" width="12.528" height="6.90933" rx="3.45466" transform="rotate(7 101.792 262.183)" fill="#434343"/>
<rect x="116.994" y="138.374" width="12.528" height="6.90933" rx="3.45466" transform="rotate(7 116.994 138.374)" fill="#434343"/>
<path fill-rule="evenodd" clip-rule="evenodd" d="M117.941 130.659C118.173 128.765 119.897 127.419 121.791 127.651L127.367 128.336C129.261 128.569 130.608 130.292 130.375 132.186C130.143 134.08 128.419 135.426 126.525 135.194L120.949 134.509C119.055 134.277 117.708 132.553 117.941 130.659Z" fill="#434343"/>
<rect x="115.625" y="149.518" width="12.528" height="6.90933" rx="3.45466" transform="rotate(7 115.625 149.518)" fill="#434343"/>
<rect x="108.784" y="205.238" width="12.528" height="6.90933" rx="3.45466" transform="rotate(7 108.784 205.238)" fill="#434343"/>
<path fill-rule="evenodd" clip-rule="evenodd" d="M113.836 164.091C114.068 162.197 115.792 160.851 117.686 161.083L123.263 161.768C125.156 162 126.503 163.724 126.271 165.618C126.038 167.512 124.314 168.858 122.421 168.626L116.844 167.941C114.95 167.709 113.603 165.985 113.836 164.091Z" fill="#434343"/>
<rect x="107.415" y="216.382" width="12.528" height="6.90933" rx="3.45466" transform="rotate(7 107.415 216.382)" fill="#434343"/>
<path fill-rule="evenodd" clip-rule="evenodd" d="M105.626 230.955C105.859 229.061 107.582 227.714 109.476 227.947L115.053 228.632C116.947 228.864 118.293 230.588 118.061 232.482C117.828 234.375 116.104 235.722 114.211 235.49L108.634 234.805C106.74 234.572 105.394 232.849 105.626 230.955Z" fill="#434343"/>
<path fill-rule="evenodd" clip-rule="evenodd" d="M104.258 242.099C104.49 240.205 106.214 238.858 108.108 239.091L113.684 239.776C115.578 240.008 116.925 241.732 116.692 243.626C116.46 245.519 114.736 246.866 112.842 246.634L107.266 245.949C105.372 245.716 104.025 243.993 104.258 242.099Z" fill="#434343"/>
<rect x="111.52" y="182.95" width="12.528" height="6.90933" rx="3.45466" transform="rotate(7 111.52 182.95)" fill="#434343"/>
<rect x="103.242" y="250.37" width="12.528" height="6.90933" rx="3.45466" transform="rotate(7 103.242 250.37)" fill="#434343"/>
</g>
<g filter="url(#filter2_d)">
<path fill-rule="evenodd" clip-rule="evenodd" d="M86.6471 321.822C112.21 314.972 127.381 288.696 120.531 263.133C113.681 237.57 87.4056 222.399 61.8423 229.249C36.279 236.099 21.1087 262.375 27.9583 287.938C34.808 313.501 61.0838 328.671 86.6471 321.822Z" fill="#98C278"/>
</g>
<path fill-rule="evenodd" clip-rule="evenodd" d="M72.3346 286.686C71.826 286.822 71.2831 286.692 70.8907 286.342C70.4982 285.991 70.309 285.465 70.3876 284.945L73.3468 265.539C73.4984 264.709 74.2817 264.149 75.1158 264.275C75.9499 264.401 76.5331 265.167 76.4328 266.005L73.4912 285.38C73.4074 286.01 72.95 286.527 72.3346 286.686ZM86.5322 280.774C85.9327 280.934 85.2955 280.724 84.9089 280.238C84.5223 279.753 84.4597 279.085 84.7495 278.536L88.6383 271.165L81.7547 267.191C81.007 266.759 80.7508 265.803 81.1825 265.055C81.6141 264.308 82.5702 264.051 83.3179 264.483L91.5094 269.212C92.2378 269.631 92.5043 270.551 92.1124 271.294L87.5189 279.992C87.3132 280.378 86.9544 280.66 86.5306 280.768L86.5322 280.774ZM63.492 286.476C63.8509 286.683 64.2777 286.739 64.6777 286.63L64.6761 286.624C65.2854 286.459 65.7356 285.944 65.8169 285.318C65.8982 284.692 65.5946 284.079 65.0476 283.764L58.164 279.789L62.0468 272.42C62.4493 271.657 62.157 270.712 61.394 270.309C60.6309 269.907 59.686 270.199 59.2834 270.962L54.6975 279.665C54.3056 280.408 54.5721 281.328 55.3005 281.746L63.492 286.476Z" fill="white"/>
<path opacity="0.2" fill-rule="evenodd" clip-rule="evenodd" d="M176.073 23.9596C182.689 23.9596 188.053 18.5961 188.053 11.9798C188.053 5.36354 182.689 0 176.073 0C169.457 0 164.093 5.36354 164.093 11.9798C164.093 18.5961 169.457 23.9596 176.073 23.9596Z" fill="#323A5C"/>
<path opacity="0.4" fill-rule="evenodd" clip-rule="evenodd" d="M116.174 359.394C122.79 359.394 128.154 354.031 128.154 347.414C128.154 340.798 122.79 335.434 116.174 335.434C109.558 335.434 104.194 340.798 104.194 347.414C104.194 354.031 109.558 359.394 116.174 359.394Z" fill="#E8E8E8"/>
<path opacity="0.1" fill-rule="evenodd" clip-rule="evenodd" d="M414.471 119.798C424.395 119.798 432.441 111.753 432.441 101.828C432.441 91.9039 424.395 83.8586 414.471 83.8586C404.547 83.8586 396.501 91.9039 396.501 101.828C396.501 111.753 404.547 119.798 414.471 119.798Z" fill="#323A5C"/>
<g filter="url(#filter3_d)">
<path fill-rule="evenodd" clip-rule="evenodd" d="M355.428 85.57C369.133 85.57 380.243 74.4598 380.243 60.7547C380.243 47.0496 369.133 35.9394 355.428 35.9394C341.723 35.9394 330.612 47.0496 330.612 60.7547C330.612 74.4598 341.723 85.57 355.428 85.57Z" fill="#52658F"/>
</g>
<g filter="url(#filter4_d)">
<path fill-rule="evenodd" clip-rule="evenodd" d="M348.582 355.8C368.431 355.8 384.522 339.709 384.522 319.861C384.522 300.012 368.431 283.921 348.582 283.921C328.733 283.921 312.643 300.012 312.643 319.861C312.643 339.709 328.733 355.8 348.582 355.8Z" fill="#B670CB"/>
</g>
<path fill-rule="evenodd" clip-rule="evenodd" d="M359.266 313.657C363.955 315.092 367.013 317.406 367.013 319.848C367.013 322.282 363.97 324.597 359.311 326.032C360.401 330.795 359.928 334.59 357.816 335.807C357.32 336.092 356.749 336.227 356.118 336.227C354.052 336.227 351.347 334.77 348.612 332.23C345.877 334.785 343.173 336.258 341.106 336.258C340.475 336.258 339.904 336.122 339.416 335.837C337.297 334.62 336.816 330.818 337.898 326.039C333.21 324.604 330.152 322.29 330.152 319.848C330.152 317.414 333.195 315.107 337.868 313.665C336.779 308.901 337.252 305.107 339.363 303.89C339.859 303.604 340.43 303.469 341.061 303.469V303.461C343.127 303.461 345.832 304.919 348.567 307.458C351.302 304.904 354.007 303.431 356.073 303.431V303.439C356.694 303.44 357.262 303.575 357.749 303.859C359.867 305.077 360.348 308.878 359.266 313.657ZM356.066 305.107C354.503 305.111 352.207 306.358 349.762 308.631C350.821 309.735 351.873 310.997 352.887 312.387C354.578 312.568 356.186 312.846 357.659 313.206C357.824 312.447 357.959 311.704 358.042 310.997C358.387 308.127 357.944 305.896 356.922 305.31C356.689 305.182 356.411 305.114 356.066 305.114V305.107ZM347.373 308.638C344.923 306.376 342.617 305.137 341.061 305.137V305.144C340.716 305.144 340.423 305.204 340.197 305.34C339.183 305.933 338.747 308.165 339.1 311.035C339.19 311.734 339.318 312.462 339.491 313.214C340.964 312.846 342.571 312.568 344.27 312.387C345.269 310.997 346.321 309.743 347.373 308.638ZM356.216 317.804C356.607 316.805 356.952 315.806 357.23 314.837C356.246 314.596 355.217 314.401 354.15 314.243C354.518 314.814 354.886 315.4 355.232 316.001C355.585 316.602 355.908 317.203 356.216 317.804ZM353.789 322.838C353.203 323.853 352.602 324.815 351.978 325.709C350.859 325.806 349.724 325.859 348.582 325.859C347.448 325.859 346.313 325.806 345.201 325.716C344.578 324.822 343.969 323.868 343.383 322.861C342.812 321.877 342.293 320.877 341.82 319.871C342.286 318.864 342.812 317.857 343.375 316.873C343.961 315.858 344.563 314.897 345.186 314.003C346.306 313.905 347.44 313.852 348.582 313.852C349.717 313.852 350.851 313.905 351.963 313.995C352.587 314.889 353.196 315.843 353.782 316.85C354.353 317.835 354.871 318.834 355.344 319.841C354.871 320.847 354.353 321.854 353.789 322.838ZM357.253 324.852C356.967 323.875 356.622 322.869 356.216 321.862C355.908 322.463 355.585 323.071 355.239 323.672C354.894 324.281 354.525 324.875 354.157 325.453C355.232 325.295 356.269 325.093 357.253 324.852ZM348.597 329.879C347.899 329.157 347.2 328.353 346.509 327.474C347.185 327.504 347.876 327.527 348.575 327.527C349.281 327.527 349.98 327.512 350.663 327.474C349.987 328.353 349.289 329.157 348.597 329.879ZM339.927 324.86C340.911 325.1 341.94 325.295 343.007 325.453C342.639 324.882 342.278 324.296 341.925 323.695C341.572 323.094 341.249 322.493 340.941 321.892C340.55 322.891 340.205 323.89 339.927 324.86ZM348.56 309.818C349.258 310.539 349.957 311.343 350.648 312.222C349.972 312.192 349.281 312.169 348.582 312.169C347.876 312.169 347.177 312.184 346.494 312.222C347.17 311.343 347.868 310.539 348.56 309.818ZM341.918 316.024C342.263 315.415 342.632 314.822 343 314.243C341.925 314.401 340.888 314.604 339.904 314.837C340.19 315.813 340.535 316.82 340.941 317.827C341.249 317.226 341.572 316.625 341.918 316.024ZM336.2 323.65C333.54 322.515 331.82 321.028 331.82 319.848C331.82 318.669 333.54 317.173 336.2 316.046C336.846 315.768 337.552 315.52 338.281 315.287C338.71 316.76 339.273 318.293 339.972 319.863C339.281 321.426 338.725 322.951 338.304 324.416C337.56 324.183 336.854 323.928 336.2 323.65ZM339.123 328.699C338.777 331.569 339.22 333.801 340.242 334.387C340.468 334.514 340.753 334.582 341.091 334.59C342.654 334.59 344.953 333.342 347.403 331.066C346.343 329.961 345.291 328.699 344.277 327.309C342.587 327.129 340.979 326.851 339.506 326.49C339.341 327.249 339.205 327.993 339.123 328.699ZM358.064 328.661C358.417 331.532 357.982 333.763 356.967 334.357C356.742 334.492 356.449 334.552 356.103 334.552C354.548 334.552 352.241 333.312 349.792 331.051C350.844 329.946 351.896 328.691 352.895 327.301C354.593 327.121 356.201 326.843 357.674 326.475C357.846 327.234 357.982 327.963 358.064 328.661ZM358.876 324.409C359.605 324.176 360.311 323.928 360.957 323.65C363.617 322.523 365.337 321.028 365.345 319.848C365.345 318.669 363.624 317.181 360.964 316.046C360.303 315.768 359.597 315.513 358.853 315.28C358.432 316.745 357.876 318.27 357.185 319.833C357.884 321.403 358.447 322.936 358.876 324.409Z" fill="white"/>
<path d="M348.575 323.282C350.471 323.282 352.008 321.744 352.008 319.848C352.008 317.952 350.471 316.414 348.575 316.414C346.678 316.414 345.141 317.952 345.141 319.848C345.141 321.744 346.678 323.282 348.575 323.282Z" fill="white"/>
<defs>
<filter id="filter0_f" x="12.8287" y="8.53769" width="445.758" height="414.222" filterUnits="userSpaceOnUse" color-interpolation-filters="sRGB">
<feFlood flood-opacity="0" result="BackgroundImageFix"/>
<feBlend mode="normal" in="SourceGraphic" in2="BackgroundImageFix" result="shape"/>
<feGaussianBlur stdDeviation="48.81" result="effect1_foregroundBlur"/>
</filter>
<filter id="filter1_d" x="74.1001" y="31" width="336.581" height="302.114" filterUnits="userSpaceOnUse" color-interpolation-filters="sRGB">
<feFlood flood-opacity="0" result="BackgroundImageFix"/>
<feColorMatrix in="SourceAlpha" type="matrix" values="0 0 0 0 0 0 0 0 0 0 0 0 0 0 0 0 0 0 127 0"/>
<feOffset dx="2" dy="3"/>
<feGaussianBlur stdDeviation="7.5"/>
<feColorMatrix type="matrix" values="0 0 0 0 0.196078 0 0 0 0 0.227451 0 0 0 0 0.360784 0 0 0 0.25 0"/>
<feBlend mode="normal" in2="BackgroundImageFix" result="effect1_dropShadow"/>
<feBlend mode="normal" in="SourceGraphic" in2="effect1_dropShadow" result="shape"/>
</filter>
<filter id="filter2_d" x="0.555908" y="206.847" width="147.378" height="147.378" filterUnits="userSpaceOnUse" color-interpolation-filters="sRGB">
<feFlood flood-opacity="0" result="BackgroundImageFix"/>
<feColorMatrix in="SourceAlpha" type="matrix" values="0 0 0 0 0 0 0 0 0 0 0 0 0 0 0 0 0 0 127 0"/>
<feOffset dy="5"/>
<feGaussianBlur stdDeviation="7.5"/>
<feColorMatrix type="matrix" values="0 0 0 0 0.2 0 0 0 0 0.227451 0 0 0 0 0.337255 0 0 0 0.25 0"/>
<feBlend mode="normal" in2="BackgroundImageFix" result="effect1_dropShadow"/>
<feBlend mode="normal" in="SourceGraphic" in2="effect1_dropShadow" result="shape"/>
</filter>
<filter id="filter3_d" x="315.612" y="25.9394" width="79.6306" height="79.6306" filterUnits="userSpaceOnUse" color-interpolation-filters="sRGB">
<feFlood flood-opacity="0" result="BackgroundImageFix"/>
<feColorMatrix in="SourceAlpha" type="matrix" values="0 0 0 0 0 0 0 0 0 0 0 0 0 0 0 0 0 0 127 0"/>
<feOffset dy="5"/>
<feGaussianBlur stdDeviation="7.5"/>
<feColorMatrix type="matrix" values="0 0 0 0 0.2 0 0 0 0 0.227451 0 0 0 0 0.337255 0 0 0 0.25 0"/>
<feBlend mode="normal" in2="BackgroundImageFix" result="effect1_dropShadow"/>
<feBlend mode="normal" in="SourceGraphic" in2="effect1_dropShadow" result="shape"/>
</filter>
<filter id="filter4_d" x="297.643" y="273.921" width="101.879" height="101.879" filterUnits="userSpaceOnUse" color-interpolation-filters="sRGB">
<feFlood flood-opacity="0" result="BackgroundImageFix"/>
<feColorMatrix in="SourceAlpha" type="matrix" values="0 0 0 0 0 0 0 0 0 0 0 0 0 0 0 0 0 0 127 0"/>
<feOffset dy="5"/>
<feGaussianBlur stdDeviation="7.5"/>
<feColorMatrix type="matrix" values="0 0 0 0 0.2 0 0 0 0 0.227451 0 0 0 0 0.337255 0 0 0 0.25 0"/>
<feBlend mode="normal" in2="BackgroundImageFix" result="effect1_dropShadow"/>
<feBlend mode="normal" in="SourceGraphic" in2="effect1_dropShadow" result="shape"/>
</filter>
</defs>
</svg>
