<svg width="434" height="411" xmlns="http://www.w3.org/2000/svg" xmlns:xlink="http://www.w3.org/1999/xlink"><defs><filter x="-47.1%" y="-56%" width="194.2%" height="211.9%" filterUnits="objectBoundingBox" id="a"><feGaussianBlur stdDeviation="35.912" in="SourceGraphic"/></filter><filter x="-12.5%" y="-14.6%" width="125%" height="129.2%" filterUnits="objectBoundingBox" id="b"><feOffset dx="2" dy="3" in="SourceAlpha" result="shadowOffsetOuter1"/><feGaussianBlur stdDeviation="7.5" in="shadowOffsetOuter1" result="shadowBlurOuter1"/><feColorMatrix values="0 0 0 0 0.196078431 0 0 0 0 0.22745098 0 0 0 0 0.360784314 0 0 0 0.25 0" in="shadowBlurOuter1" result="shadowMatrixOuter1"/><feMerge><feMergeNode in="shadowMatrixOuter1"/><feMergeNode in="SourceGraphic"/></feMerge></filter><filter x="-26.1%" y="-20.9%" width="152.2%" height="152.2%" filterUnits="objectBoundingBox" id="e"><feOffset dy="5" in="SourceAlpha" result="shadowOffsetOuter1"/><feGaussianBlur stdDeviation="7.5" in="shadowOffsetOuter1" result="shadowBlurOuter1"/><feColorMatrix values="0 0 0 0 0.2 0 0 0 0 0.22745098 0 0 0 0 0.337254902 0 0 0 0.25 0" in="shadowBlurOuter1"/></filter><filter x="-50.4%" y="-40.3%" width="200.7%" height="200.7%" filterUnits="objectBoundingBox" id="g"><feOffset dy="5" in="SourceAlpha" result="shadowOffsetOuter1"/><feGaussianBlur stdDeviation="7.5" in="shadowOffsetOuter1" result="shadowBlurOuter1"/><feColorMatrix values="0 0 0 0 0.2 0 0 0 0 0.22745098 0 0 0 0 0.337254902 0 0 0 0.25 0" in="shadowBlurOuter1"/></filter><filter x="-34.8%" y="-27.8%" width="169.6%" height="169.6%" filterUnits="objectBoundingBox" id="i"><feOffset dy="5" in="SourceAlpha" result="shadowOffsetOuter1"/><feGaussianBlur stdDeviation="7.5" in="shadowOffsetOuter1" result="shadowBlurOuter1"/><feColorMatrix values="0 0 0 0 0.2 0 0 0 0 0.22745098 0 0 0 0 0.337254902 0 0 0 0.25 0" in="shadowBlurOuter1"/></filter><circle id="f" cx="47.919" cy="47.919" r="47.919"/><circle id="h" cx="339.884" cy="60.755" r="24.815"/><circle id="j" cx="35.939" cy="35.939" r="35.939"/><path d="M14 0h251.434c7.732 0 14 6.268 14 14v211.848c0 7.732-6.268 14-14 14H14c-7.732 0-14-6.268-14-14V14C0 6.268 6.268 0 14 0z" id="c"/></defs><g transform="translate(3)" fill="none" fill-rule="evenodd"><path d="M50.15 60.544h178.758c13.807 0 25 11.193 25 25v142.539c0 13.807-11.193 25-25 25H50.149c-13.807 0-25-11.193-25-25V85.544c0-13.807 11.193-25 25-25z" fill="#323A5C" opacity=".8" filter="url(#a)" transform="rotate(7 -301.129 845.422)"/><g filter="url(#b)" transform="rotate(7 -301.129 845.422)"><mask id="d" fill="#fff"><use xlink:href="#c"/></mask><use fill="#333" xlink:href="#c"/><path fill="#D8D8D8" opacity=".1" mask="url(#d)" d="M0 0h279.434v23.286H0z"/><g transform="translate(11.657 37.884)"><rect fill="#B670CB" x="19.418" width="25.267" height="6.909" rx="3.455"/><rect fill="#E5C07A" x="81.242" width="25.267" height="6.909" rx="3.455"/><path d="M132.005 0h18.357a3.455 3.455 0 110 6.91h-18.357a3.455 3.455 0 110-6.91z" fill="#98C278"/><path d="M66.418 0h7.606a3.455 3.455 0 110 6.91h-7.606a3.455 3.455 0 110-6.91zM113.726 0h7.606a3.455 3.455 0 110 6.91h-7.606a3.455 3.455 0 110-6.91z" fill="#B670CB"/><rect fill="#57B6C2" x="48.448" width="10.752" height="6.909" rx="3.455"/><rect fill="#57B6C2" x="77.479" y="181.436" width="43.008" height="6.909" rx="3.455"/><rect fill="#B670CB" x="19.418" y="11.228" width="25.267" height="6.909" rx="3.455"/><path d="M51.903 11.228h18.358a3.455 3.455 0 010 6.909H51.903a3.455 3.455 0 110-6.91z" fill="#E5C07A"/><path d="M99.211 11.228h18.358a3.455 3.455 0 010 6.909H99.211a3.455 3.455 0 110-6.91z" fill="#98C278"/><path d="M80.933 11.228h7.606a3.455 3.455 0 010 6.909h-7.606a3.455 3.455 0 110-6.91z" fill="#B670CB"/><path d="M65.88 90.381h18.358a3.455 3.455 0 110 6.91H65.881a3.455 3.455 0 110-6.91zM65.88 112.836h18.358a3.455 3.455 0 110 6.91H65.881a3.455 3.455 0 110-6.91z" fill="#E5C07A"/><rect fill="#CD9765" x="91.456" y="90.381" width="14.515" height="6.909" rx="3.455"/><rect fill="#98C278" x="109.734" y="90.381" width="62.899" height="6.909" rx="3.455"/><rect fill="#B670CB" x="19.418" y="34.243" width="25.267" height="6.909" rx="3.455"/><rect fill="#B670CB" x="19.418" y="181.436" width="25.267" height="6.909" rx="3.455"/><rect fill="#B670CB" x="48.448" y="181.436" width="25.267" height="6.909" rx="3.455"/><rect fill="#B670CB" x="40.922" y="56.698" width="25.267" height="6.909" rx="3.455"/><rect fill="#E5C07A" x="48.448" y="34.243" width="25.267" height="6.909" rx="3.455"/><path d="M177.163 181.436h12.981a3.455 3.455 0 110 6.91h-12.981a3.455 3.455 0 110-6.91z" fill="#E5C07A"/><rect fill="#E5C07A" x="95.757" y="34.243" width="25.267" height="6.909" rx="3.455"/><rect fill="#D56972" x="124.787" y="34.243" width="25.267" height="6.909" rx="3.455"/><path d="M33.625 45.47h18.358a3.455 3.455 0 010 6.91H33.625a3.455 3.455 0 010-6.91z" fill="#D56972"/><rect fill="#D56972" x="51.674" y="67.926" width="25.267" height="6.909" rx="3.455"/><rect fill="#D56972" x="51.674" y="124.064" width="25.267" height="6.909" rx="3.455"/><path d="M65.88 79.154h7.606a3.455 3.455 0 010 6.909h-7.605a3.455 3.455 0 110-6.91zM147.595 79.154h7.606a3.455 3.455 0 010 6.909h-7.606a3.455 3.455 0 010-6.91z" fill="#D56972"/><path d="M84.159 79.154h7.606a3.455 3.455 0 010 6.909h-7.606a3.455 3.455 0 110-6.91zM127.704 181.436h7.606a3.455 3.455 0 110 6.91h-7.606a3.455 3.455 0 110-6.91z" fill="#A7AEBB"/><rect fill="#A7AEBB" x="69.952" y="56.698" width="9.139" height="6.909" rx="3.455"/><path d="M80.933 45.47h2.23a3.455 3.455 0 010 6.91h-2.23a3.455 3.455 0 010-6.91z" fill="#A7AEBB"/><rect fill="#A7AEBB" x="40.922" y="135.292" width="9.139" height="6.909" rx="3.455"/><path d="M33.625 146.52h2.23a3.455 3.455 0 110 6.909h-2.23a3.455 3.455 0 110-6.91zM22.873 157.747h2.23a3.455 3.455 0 110 6.91h-2.23a3.455 3.455 0 110-6.91z" fill="#A7AEBB"/><rect fill="#A7AEBB" x="153.817" y="34.243" width="9.139" height="6.909" rx="3.455"/><rect fill="#A7AEBB" x="98.982" y="79.154" width="41.395" height="6.909" rx="3.455"/><path d="M76.632 101.609h34.486a3.455 3.455 0 010 6.91H76.632a3.455 3.455 0 110-6.91z" fill="#A7AEBB"/><rect fill="#B670CB" x="77.479" y="34.243" width="14.515" height="6.909" rx="3.455"/><path d="M62.655 45.47h7.606a3.455 3.455 0 010 6.91h-7.606a3.455 3.455 0 110-6.91z" fill="#B670CB"/><path d="M164.26 181.436h2.23a3.455 3.455 0 110 6.91h-2.23a3.455 3.455 0 110-6.91z" fill="#A7AEBB"/><rect fill="#B670CB" x="142.527" y="181.436" width="14.515" height="6.909" rx="3.455"/><rect fill="#434343" x=".625" width="12.528" height="6.909" rx="3.455"/><path d="M4.08 11.228h5.618a3.455 3.455 0 010 6.909H4.079a3.455 3.455 0 110-6.91zM4.08 22.503h5.618a3.455 3.455 0 010 6.91H4.079a3.455 3.455 0 110-6.91z" fill="#434343"/><rect fill="#434343" x=".625" y="90.381" width="12.528" height="6.909" rx="3.455"/><rect fill="#434343" x=".625" y="112.836" width="12.528" height="6.909" rx="3.455"/><rect fill="#434343" x=".625" y="34.243" width="12.528" height="6.909" rx="3.455"/><rect fill="#434343" x=".625" y="181.436" width="12.528" height="6.909" rx="3.455"/><rect fill="#434343" x=".625" y="56.698" width="12.528" height="6.909" rx="3.455"/><path d="M4.08 45.47h5.618a3.455 3.455 0 010 6.91H4.079a3.455 3.455 0 110-6.91z" fill="#434343"/><rect fill="#434343" x=".625" y="67.926" width="12.528" height="6.909" rx="3.455"/><rect fill="#434343" x=".625" y="124.064" width="12.528" height="6.909" rx="3.455"/><path d="M4.08 79.154h5.618a3.455 3.455 0 010 6.909H4.079a3.455 3.455 0 110-6.91z" fill="#434343"/><rect fill="#434343" x=".625" y="135.292" width="12.528" height="6.909" rx="3.455"/><path d="M4.08 146.52h5.618a3.455 3.455 0 110 6.909H4.079a3.455 3.455 0 110-6.91zM4.08 157.747h5.618a3.455 3.455 0 110 6.91H4.079a3.455 3.455 0 110-6.91z" fill="#434343"/><rect fill="#434343" x=".625" y="101.609" width="12.528" height="6.909" rx="3.455"/><rect fill="#434343" x=".625" y="169.535" width="12.528" height="6.909" rx="3.455"/></g></g><g transform="rotate(-15 917.769 120.78)"><use fill="#000" filter="url(#e)" xlink:href="#f"/><use fill="#98C278" xlink:href="#f"/></g><path d="M56.791 286.686a1.561 1.561 0 01-1.947-1.741l2.96-19.406a1.561 1.561 0 013.085.466l-2.941 19.375a1.561 1.561 0 01-1.157 1.306zm14.198-5.912a1.561 1.561 0 01-1.783-2.238l3.889-7.371-6.884-3.974a1.563 1.563 0 111.563-2.708l8.192 4.73c.728.418.995 1.338.603 2.081l-4.594 8.698a1.555 1.555 0 01-.988.776l.002.006zm-21.855 5.856c-.4.109-.827.053-1.186-.154l-8.191-4.73a1.561 1.561 0 01-.603-2.082l4.586-8.702a1.562 1.562 0 012.763 1.458l-3.883 7.37 6.884 3.974a1.561 1.561 0 01-.372 2.86l.002.006z" fill="#FFF" fill-rule="nonzero"/><circle fill="#323A5C" opacity=".2" cx="160.529" cy="11.98" r="11.98"/><circle fill="#E8E8E8" opacity=".4" cx="100.63" cy="347.414" r="11.98"/><circle fill="#323A5C" opacity=".1" cx="398.927" cy="101.828" r="17.97"/><g><use fill="#000" filter="url(#g)" xlink:href="#h"/><use fill="#52658F" xlink:href="#h"/></g><g><g transform="translate(297.1 283.921)"><use fill="#000" filter="url(#i)" xlink:href="#j"/><use fill="#B670CB" xlink:href="#j"/></g><g transform="translate(314.555 303.431)" fill="#FFF" fill-rule="nonzero"><path d="M36.914 16.417c0-2.442-3.058-4.756-7.747-6.191 1.082-4.779.601-8.58-1.517-9.798-.489-.285-1.06-.42-1.683-.42v1.675c.345 0 .623.068.856.195 1.022.586 1.465 2.818 1.12 5.688a23.13 23.13 0 01-.384 2.209 36.412 36.412 0 00-4.77-.819 36.65 36.65 0 00-3.126-3.757c2.45-2.276 4.748-3.523 6.311-3.523V0c-2.066 0-4.771 1.473-7.506 4.027C15.733 1.487 13.028.03 10.962.03v1.676c1.555 0 3.862 1.24 6.311 3.5a35.487 35.487 0 00-3.103 3.75c-1.698.18-3.306.458-4.778.827-.173-.752-.3-1.48-.39-2.18-.354-2.87.082-5.101 1.096-5.695.226-.135.519-.195.864-.195V.038c-.631 0-1.202.135-1.698.42C7.153 1.676 6.68 5.47 7.77 10.233 3.096 11.676.053 13.983.053 16.417c0 2.442 3.058 4.756 7.746 6.191-1.082 4.779-.601 8.58 1.518 9.798.488.285 1.06.42 1.69.42 2.066 0 4.771-1.472 7.506-4.027 2.735 2.54 5.44 3.997 7.506 3.997.631 0 1.202-.135 1.698-.42 2.111-1.218 2.585-5.012 1.495-9.775 4.659-1.436 7.702-3.75 7.702-6.184zm-9.783-5.012a33.84 33.84 0 01-1.014 2.968 35.558 35.558 0 00-.984-1.803 40.654 40.654 0 00-1.082-1.758c1.067.158 2.096.353 3.08.593zm-3.441 8.002a40.028 40.028 0 01-1.81 2.87 39.094 39.094 0 01-6.778.008 41.418 41.418 0 01-1.818-2.855 39.137 39.137 0 01-1.563-2.99 40.028 40.028 0 013.366-5.868 39.094 39.094 0 016.777-.008 41.418 41.418 0 011.818 2.855c.571.984 1.09 1.984 1.563 2.99a42.068 42.068 0 01-1.555 2.998zm2.427-.976a32.2 32.2 0 011.037 2.99 33.72 33.72 0 01-3.096.601c.368-.579.736-1.172 1.082-1.78.346-.602.669-1.21.977-1.811zm-7.619 8.016a30.975 30.975 0 01-2.089-2.404c.677.03 1.368.053 2.067.053.706 0 1.405-.015 2.088-.053a29.327 29.327 0 01-2.066 2.404zm-5.59-4.425a33.903 33.903 0 01-3.08-.594 33.84 33.84 0 011.014-2.967c.308.6.631 1.202.984 1.803.353.6.714 1.187 1.082 1.758zm5.553-15.636a30.975 30.975 0 012.088 2.405 46.511 46.511 0 00-2.066-.053c-.706 0-1.405.015-2.089.053a29.327 29.327 0 012.067-2.405zm-5.56 4.426a41.508 41.508 0 00-2.06 3.584 32.2 32.2 0 01-1.036-2.99 36.49 36.49 0 013.096-.594zm-6.8 9.407c-2.66-1.135-4.38-2.622-4.38-3.802 0-1.18 1.72-2.675 4.38-3.802a23.152 23.152 0 012.081-.759 36.086 36.086 0 001.69 4.576 35.577 35.577 0 00-1.667 4.553A22.824 22.824 0 016.1 20.22zm4.042 10.736c-1.022-.586-1.465-2.817-1.12-5.687.083-.706.219-1.45.384-2.21 1.472.361 3.08.64 4.77.82a36.65 36.65 0 003.127 3.757c-2.45 2.276-4.749 3.523-6.312 3.523-.338-.007-.623-.075-.849-.203zm17.822-5.725c.353 2.87-.083 5.102-1.097 5.695-.225.136-.518.196-.864.196-1.555 0-3.862-1.24-6.311-3.502a35.487 35.487 0 003.103-3.749 35.086 35.086 0 004.778-.826c.173.759.308 1.487.391 2.186zm2.893-5.011c-.646.278-1.353.526-2.081.759a36.086 36.086 0 00-1.691-4.576 35.577 35.577 0 001.668-4.553c.744.233 1.45.488 2.111.766 2.66 1.135 4.38 2.622 4.38 3.802-.007 1.18-1.727 2.675-4.387 3.802z"/><circle cx="18.476" cy="16.417" r="3.434"/></g></g></g></svg>