<svg width="37" height="20" viewBox="0 0 37 20" fill="none" xmlns="http://www.w3.org/2000/svg">
<path fill-rule="evenodd" clip-rule="evenodd" d="M34.6395 1.41988C34.7419 1.10435 34.9312 0.887988 35.2074 0.770791C35.4836 0.653594 35.929 0.581474 36.5437 0.554429V0C35.5281 0.0540909 34.0938 0.0811359 32.2408 0.0811359H30.3032L25.2519 13.4686L19.733 0C18.5392 0.0540909 17.096 0.0811359 15.4034 0.0811359C14.3967 0.0811359 13.6038 0.0540909 13.0248 0V0.554429C13.6395 0.581474 14.0474 0.665197 14.3611 0.770791L14.3992 0.783537C14.7017 0.884341 15.0282 0.99316 15.7107 1.78499C16.4221 2.61017 23.1005 19.6484 23.1005 19.6484H23.5415L30.1294 2.25828V16.6734C30.1294 17.3676 30.0738 17.8724 29.9624 18.188C29.851 18.5035 29.6462 18.7199 29.3477 18.8371C29.0493 18.9542 28.5704 19.0264 27.9112 19.0534V19.6078C28.8466 19.5538 30.2898 19.5267 32.2408 19.5267C34.0938 19.5267 35.5281 19.5538 36.5437 19.6078V19.0534C35.929 19.0264 35.4836 18.9542 35.2074 18.8371C34.9312 18.7199 34.7419 18.5035 34.6395 18.188C34.537 17.8724 34.4858 17.3676 34.4858 16.6734V2.93442C34.4858 2.24025 34.537 1.73541 34.6395 1.41988ZM15.5103 20C16.3121 20 16.9958 19.8738 17.5615 19.6214C18.1272 19.3689 18.6551 18.9588 19.145 18.3908L18.7709 18.0527C18.5838 18.2781 18.4078 18.4404 18.243 18.5396C18.0782 18.6387 17.8845 18.6883 17.6617 18.6883C17.3232 18.6883 17.0604 18.5441 16.8733 18.2556C16.6862 17.9671 16.517 17.4487 16.3655 16.7005L15.7508 13.8472C15.5905 13.0719 15.3076 12.4341 14.9023 11.9337C14.4969 11.4334 13.9379 11.0435 13.2252 10.764C12.5125 10.4846 11.6038 10.2952 10.4858 10.1961C9.50245 10.1961 8.77533 10.3043 8.77533 10.3043C9.31876 10.3043 9.75305 10.4643 10.0782 10.7843C10.4034 11.1044 10.6551 11.5348 10.8332 12.0757C11.0114 12.6166 11.1762 13.3378 11.3277 14.2394L11.8087 16.998C12.0047 18.0978 12.4101 18.8731 13.0248 19.3239C13.6395 19.7746 14.468 20 15.5103 20ZM7.6662 0.776205C7.39002 0.893402 7.20072 1.10976 7.09827 1.42529C6.99582 1.74082 6.94459 2.24566 6.94459 2.93983V16.6788C6.94459 17.373 6.99582 17.8778 7.09827 18.1934C7.20072 18.5089 7.39002 18.7253 7.6662 18.8425C7.94237 18.9597 8.3878 19.0318 9.0025 19.0588V19.6133C8.01363 19.5592 6.6328 19.5321 4.85996 19.5321C2.90895 19.5321 1.47021 19.5592 0.543701 19.6133V19.0588C1.1584 19.0318 1.60161 18.9597 1.87332 18.8425C2.14504 18.7253 2.33212 18.5089 2.43457 18.1934C2.53702 17.8778 2.58824 17.373 2.58824 16.6788V2.93983C2.58824 2.24566 2.53702 1.74082 2.43457 1.42529C2.33212 1.10976 2.14281 0.893402 1.86664 0.776205C1.59047 0.659009 1.14949 0.586888 0.543701 0.559843V0.00541434C1.47021 0.0595052 2.90895 0.0865503 4.85996 0.0865503C6.6328 0.0865503 8.01363 0.0595052 9.0025 0.00541434V0.559843C8.3878 0.586888 7.94237 0.659009 7.6662 0.776205ZM9.32391 2.89179C9.3831 2.67018 9.49111 2.51596 9.64795 2.42912C9.8048 2.34227 10.043 2.29885 10.3626 2.29885C11.1616 2.29885 11.7372 2.55639 12.0894 3.07146C12.4415 3.58654 12.6176 4.34717 12.6176 5.35336C12.6176 5.97625 12.5451 6.50929 12.4001 6.95249C12.2551 7.3957 11.9917 7.74906 11.61 8.01259C11.2282 8.27612 10.697 8.40788 10.0164 8.40788H9.23513V3.88001C9.23513 3.44279 9.26473 3.11339 9.32391 2.89179Z" fill="#323A5C"/>
</svg>
