<svg xmlns="http://www.w3.org/2000/svg" width="224" height="83" viewBox="0 0 134 49" xmlns:xlink="http://www.w3.org/1999/xlink">
  <title>
    PrimoCSS
  </title>
  <defs>
    <rect id="a" width="21.6867861" height="27.1084826" rx="8"/>
    <linearGradient id="b" x1="50%" x2="50%" y1="0%" y2="100%">
      <stop stop-color="#FB8B61" offset="0%"/>
      <stop stop-color="#F76B1C" offset="100%"/>
    </linearGradient>
  </defs>
  <g fill="none" fill-rule="evenodd">
    <g transform="rotate(-15 17.02 6.104)">
      <mask id="c" fill="#fff">
        <use xlink:href="#a"/>
      </mask>
      <use fill="#F6511D" xlink:href="#a"/>
      <rect width="21.6867861" height="27.1084826" x="6.02410725" fill="url(#b)" opacity=".48980978" style="mix-blend-mode:lighten" mask="url(#c)" transform="rotate(-30 16.867 13.554)" rx="8"/>
    </g>
    <path fill="#FFF" d="M13.3855681 22.5759461v7.7494116h-2.7903665V9.607248h6.1156737c1.3108523 0 2.450602.151806 3.4192833.4554226.9686813.3036165 1.7710843.7349382 2.4072333 1.2939782.6361489.5590399 1.1108438 1.2337332 1.4240989 2.0241.3132552.7903669.4698804 1.6722873.4698804 2.6457879 0 .963862-.1686733 1.8457825-.506025 2.6457879-.3373517.8000055-.8313236 1.4891565-1.4819304 2.0674737-.6506069.5783171-1.4578292 1.0289159-2.4216911 1.3518096-.963862.3228938-2.0674674.4843382-3.3108494.4843382h-3.3253072zm0-2.22651h3.3253072c.8000055 0 1.5060238-.1060232 2.1180761-.3180729.6120524-.2120496 1.1253012-.5084327 1.5397618-.8891582.4144607-.3807255.7277111-.8361434.9397608-1.3662675.2120496-.5301241.3180728-1.1132519.3180728-1.7494008 0-1.3204909-.4072255-2.3518077-1.2216889-3.0939814-.8144634-.7421738-2.0457786-1.1132551-3.6939826-1.1132551h-3.3253072v8.5301359z"/>
    <path fill="#0D2C54" d="M27.5687262 30.3253577V15.6795482h1.4747015c.27952 0 .4722895.0530116.5783143.1590364.1060248.1060248.1783134.2891558.2168678.5493986l.1734943 2.2843414c.5012083-1.0216937 1.1204803-1.8192775 1.8578347-2.3927754.7373544-.5734978 1.6024076-.8602425 2.5951854-.8602425.404822 0 .7710841.0457828 1.0987972.1373497.327713.0915669.631325.2192767.910845.3831332l-.3325307 1.922895c-.0674704.2409655-.2168667.3614465-.4481936.3614465-.1349407 0-.3421679-.0457828-.6216879-.1373497-.27952-.0915669-.6698782-.1373496-1.1710864-.1373496-.8963917 0-1.6457831.2602388-2.2481969.7807243-.6024137.5204854-1.106024 1.2771057-1.5108461 2.2698836v9.325318h-2.5734986zm14.5156889-14.6458095v14.6458095h-2.5734987V15.6795482h2.5734987zm.5783143-4.5975987c0 .2506041-.050602.4843371-.1518075.7012061-.1012055.2168689-.2361442.4096384-.40482.5783143-.1686759.1686758-.363855.3012049-.5855433.3975911-.2216882.0963862-.4578309.1445785-.708435.1445785-.2506041 0-.4843371-.0481923-.7012061-.1445785-.2168689-.0963862-.4096384-.2289153-.5783143-.3975911-.1686758-.1686759-.3012048-.3614454-.397591-.5783143-.0963862-.216869-.1445786-.450602-.1445786-.7012061 0-.2506041.0481924-.4891564.1445786-.7156639.0963862-.2265076.2289152-.4240963.397591-.5927722.1686759-.1686758.3614454-.3012049.5783143-.3975911.216869-.0963862.450602-.1445785.7012061-.1445785.2506041 0 .4867468.0481923.708435.1445785.2216883.0963862.4168674.2289153.5855433.3975911.1686758.1686759.3036145.3662646.40482.5927722.1012055.2265075.1518075.4650598.1518075.7156639zm3.9614529 19.2434082V15.6795482h1.5325329c.3662675 0 .5975909.1783118.6939771.5349407l.1879522 1.5036172c.5397627-.6650648 1.144577-1.2096387 1.8144611-1.6337379.6698841-.4240993 1.4481909-.6361458 2.334944-.6361458.9927778 0 1.7951809.2746966 2.4072332.8240979.6120524.5494013 1.0530126 1.2915639 1.322894 2.2265101.202411-.5301241.4698787-.9879517.802411-1.3734965.3325324-.3855448.7060233-.7036145 1.120484-.9542186.4144606-.2506041.8554209-.4337351 1.3228939-.5493986.4674731-.1156634.942168-.1734943 1.424099-.1734943.7710896 0 1.4578309.1228906 2.0602447.3686754.6024137.2457848 1.1132529.604818 1.5325329 1.0771104.4192799.4722924.7397592 1.0530105.9614475 1.7421718.2216882.6891613.3325307 1.4771067.3325307 2.3638597v9.325318h-2.5734986v-9.325318c0-1.1469958-.2506004-2.0168682-.7518086-2.6096433-.5012082-.5927751-1.2289131-.8891582-2.1831365-.8891582-.4240992 0-.8265056.0746982-1.2072311.2240968-.3807254.1493986-.7156625.3686739-1.004821.6578325-.2891586.2891586-.5180724.653011-.6867483 1.0915682-.1686758.4385572-.2530125.9469868-.2530125 1.525304v9.325318h-2.5734986v-9.325318c0-1.1759116-.2361426-2.0530129-.708435-2.6313301-.4722924-.5783172-1.1614434-.8674714-2.0674736-.8674714-.6361489 0-1.2265055.1710829-1.7710876.5132539-.544582.342171-1.0433731.8072275-1.4963882 1.3951833v10.9156823h-2.5734986zm29.6675234-14.8771353c1.0698868 0 2.0361439.1783118 2.8988004.5349408.8626565.3566289 1.5951806.8626488 2.1975943 1.518075.6024138.6554261 1.0650606 1.4481907 1.3879543 2.3783175.3228938.9301268.4843383 1.9686725.4843383 3.1156683 0 1.1566344-.1614445 2.1975897-.4843383 3.1228972-.3228937.9253075-.7855405 1.7156625-1.3879543 2.3710886-.6024137.6554262-1.3349378 1.1590365-2.1975943 1.5108461-.8626565.3518096-1.8289136.5277118-2.8988004.5277118s-2.036144-.1759022-2.8988004-.5277118c-.8626565-.3518096-1.5975902-.8554199-2.2048233-1.5108461-.607233-.6554261-1.0746991-1.4457811-1.4024121-2.3710886-.3277131-.9253075-.4915672-1.9662628-.4915672-3.1228972 0-1.1469958.1638541-2.1855415.4915672-3.1156683.327713-.9301268.7951791-1.7228914 1.4024121-2.3783175.6072331-.6554262 1.3421668-1.1614461 2.2048233-1.518075.8626564-.356629 1.8289136-.5349408 2.8988004-.5349408zm0 13.0699031c1.445793 0 2.5253022-.4843333 3.23856-1.4530146.7132579-.9686813 1.0698815-2.3204775 1.0698815-4.055429 0-1.7445902-.3566236-3.1036152-1.0698815-4.0771158-.7132578-.9735006-1.792767-1.4602436-3.23856-1.4602436-.7325351 0-1.3686745.1253002-1.9084372.3759043s-.9903614.6120469-1.3518097 1.0843393c-.3614482.4722923-.6313255 1.0530105-.80964 1.7421718-.1783144.6891613-.2674703 1.4674682-.2674703 2.334944 0 .8674757.0891559 1.643373.2674703 2.327715.1783145.684342.4481918 1.2602409.80964 1.727714.3614483.467473.812047.8265062 1.3518097 1.0771103.5397627.2506042 1.1759021.3759043 1.9084372.3759043zm25.1566723-2.4722936c.154217 0 .293975.0626501.419277.1879522l1.098798 1.2000021c-.848199.9831392-1.877106 1.749398-3.086753 2.2987994-1.2096467.5494013-2.6674661.8240978-4.3735018.8240978-1.4939861 0-2.8481919-.2578292-4.062658-.7734953-1.2144661-.5156662-2.2506021-1.2385518-3.1084393-2.1686787-.8578372-.9301268-1.5228919-2.0457803-1.9951843-3.3469939-.4722924-1.3012137-.708435-2.7325273-.708435-4.2939837s.2530099-2.99277.7590375-4.2939836c.5060275-1.3012137 1.2168651-2.4192768 2.1325339-3.354223.9156689-.9349461 2.0120455-1.6602413 3.2891626-2.1759075 1.2771171-.5156662 2.6867441-.7734954 4.2289233-.7734954 1.5229019 0 2.8361442.2361427 3.9397661.708435 1.103622.4722924 2.084337 1.113251 2.942174 1.9228951l-.910845 1.2867493c-.06747.0963862-.144578.1759036-.231326.2385546-.086747.0626511-.212047.0939761-.375904.0939761-.125302 0-.257831-.0457827-.397591-.1373496-.13976-.0915669-.306024-.204819-.498796-.3397597-.192773-.1349407-.419277-.2795178-.679519-.4337357-.260243-.1542179-.568674-.2987951-.9253033-.4337357-.356629-.1349407-.7710834-.2481928-1.2433758-.3397597-.4722923-.0915669-1.0168662-.1373496-1.6337379-.1373496-1.1084412 0-2.1228908.1903599-3.0433789.5710853-.9204882.3807255-1.7132528.9228898-2.3783176 1.626509-.6650648.7036192-1.1831328 1.5614435-1.5542197 2.5734986-.3710868 1.0120551-.5566275 2.1445759-.5566275 3.3975965 0 1.2915751.1855407 2.4433728.5566275 3.4554279.3710869 1.0120551.8771069 1.8674698 1.5180751 2.5662697.6409682.6988 1.3999981 1.2313257 2.2771125 1.5975933.8771144.3662675 1.821685.5493985 2.8337401.5493985.6168716 0 1.171084-.0361442 1.6626536-.1084339.4915696-.0722896.9469875-.1855417 1.3662675-.3397596.4192804-.154218.8096384-.3493971 1.1710864-.5855433.361448-.2361461.725301-.5180715 1.091568-.8457846.163857-.1445793.322892-.2168679.47711-.2168679zm15.816896-13.2000238c-.086748.1445793-.178314.2530122-.2747.3253018-.096386.0722896-.221686.1084339-.375904.1084339-.163857 0-.354216-.081927-.571085-.2457835-.216869-.1638566-.491566-.344578-.824098-.5421697-.332533-.1975917-.732529-.3783131-1.200002-.5421697-.467473-.1638565-1.033734-.2457835-1.698799-.2457835-.62651 0-1.180722.0843366-1.662653.2530125-.481931.1686758-.884338.3975896-1.207231.6867482-.322894.2891586-.566266.6289148-.730122 1.019279-.163857.3903641-.245784.8120473-.245784 1.2650625 0 .5783172.142168 1.0578313.426507 1.4385568.284339.3807255.66024.706024 1.127713.9759054.467473.2698813.997589.5036143 1.590364.701206.592775.1975918 1.199999.4024093 1.82169.614459.621691.2120496 1.228915.4506019 1.82169.7156639.592775.2650621 1.122892.5999991 1.590365 1.0048211s.843373.9012035 1.127713 1.4891593c.284339.5879558.426506 1.3108415.426506 2.1686786 0 .9060303-.154215 1.7566257-.462651 2.5518119-.308436.7951861-.759035 1.4867467-1.35181 2.0747025-.592775.5879558-1.32048 1.0506026-2.183136 1.3879543-.862657.3373517-1.843372.506025-2.942174.506025-1.339768 0-2.561445-.2433715-3.665067-.7301218-1.103622-.4867503-2.045783-1.1445762-2.826511-1.9734975l.80964-1.3301229c.077109-.1060248.171084-.1951807.281928-.2674703.110844-.0722897.233735-.108434.368675-.108434.202411 0 .433735.1084329.693978.3253018.260242.216869.585541.4554212.975905.715664.390364.2602427.862649.4987949 1.41687.7156639.554221.2168689 1.231323.3253018 2.031329.3253018.665065 0 1.257831-.0915655 1.778316-.2746993.520486-.1831338.961446-.440963 1.322894-.7734954.361449-.3325324.638555-.7301195.831327-1.1927732.192773-.4626538.289157-.9783122.289157-1.5469908 0-.6265102-.142167-1.139759-.426507-1.5397618-.284339-.4000027-.65783-.7349397-1.120483-1.0048211-.462654-.2698813-.990361-.4987951-1.583136-.6867482-.592775-.1879531-1.199999-.3807226-1.82169-.5783143-.621691-.1975917-1.228915-.4265055-1.82169-.6867482-.592775-.2602427-1.120482-.5975894-1.583135-1.01205-.462654-.4144607-.836145-.9325287-1.120484-1.5542197-.28434-.621691-.426507-1.3903594-.426507-2.3060283 0-.7325351.142167-1.440963.426507-2.125305.284339-.684342.696384-1.2915659 1.236147-1.82169.539762-.5301241 1.207227-.954217 2.002413-1.2722915.795186-.3180744 1.708431-.4771093 2.739764-.4771093 1.156634 0 2.212047.1831311 3.166271.5493986.954223.3662676 1.787951.8963837 2.501209 1.5903643l-.679519 1.3301229zm15.325328 0c-.086747.1445793-.178313.2530122-.274699.3253018-.096386.0722896-.221686.1084339-.375904.1084339-.163857 0-.354217-.081927-.571086-.2457835-.216868-.1638566-.491565-.344578-.824097-.5421697-.332533-.1975917-.73253-.3783131-1.200003-.5421697-.467473-.1638565-1.033733-.2457835-1.698798-.2457835-.62651 0-1.180722.0843366-1.662653.2530125-.481931.1686758-.884338.3975896-1.207232.6867482-.322893.2891586-.566265.6289148-.730121 1.019279-.163857.3903641-.245784.8120473-.245784 1.2650625 0 .5783172.142168 1.0578313.426507 1.4385568.284339.3807255.66024.706024 1.127713.9759054.467473.2698813.997589.5036143 1.590364.701206.592775.1975918 1.199999.4024093 1.82169.614459.621691.2120496 1.228915.4506019 1.82169.7156639.592775.2650621 1.122891.5999991 1.590364 1.0048211.467474.404822.843374.9012035 1.127713 1.4891593.28434.5879558.426507 1.3108415.426507 2.1686786 0 .9060303-.154215 1.7566257-.462651 2.5518119-.308436.7951861-.759035 1.4867467-1.35181 2.0747025-.592775.5879558-1.32048 1.0506026-2.183136 1.3879543-.862657.3373517-1.843372.506025-2.942174.506025-1.339769 0-2.561445-.2433715-3.665067-.7301218-1.103622-.4867503-2.045783-1.1445762-2.826511-1.9734975l.80964-1.3301229c.077109-.1060248.171084-.1951807.281928-.2674703.110844-.0722897.233735-.108434.368675-.108434.202411 0 .433735.1084329.693977.3253018.260243.216869.585542.4554212.975906.715664.390364.2602427.862649.4987949 1.41687.7156639.55422.2168689 1.231323.3253018 2.031329.3253018.665065 0 1.257831-.0915655 1.778316-.2746993.520486-.1831338.961446-.440963 1.322894-.7734954.361448-.3325324.638555-.7301195.831327-1.1927732.192772-.4626538.289157-.9783122.289157-1.5469908 0-.6265102-.142167-1.139759-.426507-1.5397618-.284339-.4000027-.65783-.7349397-1.120484-1.0048211-.462653-.2698813-.99036-.4987951-1.583135-.6867482-.592775-.1879531-1.199999-.3807226-1.82169-.5783143-.621691-.1975917-1.228915-.4265055-1.82169-.6867482-.592775-.2602427-1.120482-.5975894-1.583135-1.01205-.462654-.4144607-.836145-.9325287-1.120484-1.5542197-.28434-.621691-.426507-1.3903594-.426507-2.3060283 0-.7325351.142167-1.440963.426507-2.125305.284339-.684342.696384-1.2915659 1.236146-1.82169.539763-.5301241 1.207228-.954217 2.002414-1.2722915.795186-.3180744 1.708431-.4771093 2.739764-.4771093 1.156634 0 2.212047.1831311 3.16627.5493986.954224.3662676 1.787952.8963837 2.50121 1.5903643l-.67952 1.3301229zM27.401256 42.3548975h.6789169c.0730929 0 .1335342.0182729.1813257.0548194.0477915.0365464.0801205.0829316.0969881.1391568l1.248195 4.2000076c.0224901.0759041.0428715.1574296.0611447.2445788.0182732.0871492.0358434.1785139.0527109.2740968.0196789-.0955829.0393574-.1876505.0590363-.2762053.0196788-.0885548.0421686-.1693774.06747-.2424703l1.4210869-4.2000076c.0168676-.0477915.0498994-.0920682.0990966-.1328315.0491971-.0407634.1089355-.0611447.1792171-.0611447h.2361451c.0730928 0 .1328313.0182729.1792171.0548194.0463859.0365464.0794178.0829316.0990966.1391568l1.4126532 4.2000076c.0506027.1461857.0955823.3134534.13494.5018081.0168675-.0927717.0323293-.1813252.0463856-.2656631s.0323293-.1630521.0548194-.236145l1.2524119-4.2000076c.0140563-.0506027.0456825-.0955823.0948797-.13494.0491971-.0393577.1089355-.0590362.1792171-.0590362h.6367482l-1.8849432 6.042782h-.7337362L31.723553 43.788635c-.0309239-.0871492-.0590361-.1883532-.0843375-.303615-.0140563.0562253-.0274096.1103413-.0400603.1623497-.0126507.0520084-.026004.0990963-.0400603.1412653l-1.5391594 4.6090445h-.7337363l-1.8849432-6.042782zm10.8415859 1.7036175c.255825 0 .4919676.0428711.708435.1286147.2164673.0857436.4034136.2094373.5608444.371085.1574308.1616477.2804217.3612445.3689765.5987963.0885549.2375518.1328316.5081319.1328316.8117484 0 .1180731-.0126505.1967873-.0379519.236145-.0253013.0393577-.0730921.0590363-.1433737.0590363H36.99043c.0056225.2698813.0421684.5046184.1096387.7042181.0674704.1995998.1602407.3661647.2783138.4996997.1180731.1335351.2586342.2333334.4216875.2993981s.3457827.0990966.5481937.0990966c.1883547 0 .3507028-.021787.4870491-.0653616.1363463-.0435746.2537148-.0906625.3521091-.1412653.0983942-.0506027.1806225-.0976907.2466872-.1412653.0660647-.0435746.1229919-.0653616.1707834-.0653616.0618478 0 .1096386.0238954.1433738.0716869l.2108437.2740969c-.0927717.1124506-.203815.2101405-.3331331.2930728-.1293182.0829323-.2677708.1511044-.4153622.2045185-.1475914.053414-.3001002.0934739-.4575309.1201809-.1574308.026707-.3134537.0400603-.4680732.0400603-.2951827 0-.5671684-.0498992-.8159653-.149699-.2487969-.0997999-.4638554-.2459835-.6451819-.4385551-.1813265-.1925715-.3225904-.4308226-.4237959-.7147603s-.1518075-.6100394-.1518075-.978315c0-.297994.0456823-.576305.1370484-.8349413.0913661-.2586363.2227907-.4828312.3942778-.6725915.1714871-.1897604.3809232-.3387551.6283144-.4469888.2473912-.1082337.5257022-.1623497.8349413-.1623497zm.0168675.5524106c-.3626531 0-.6479921.1047181-.8560257.3141572-.2080335.2094392-.3373497.4996979-.3879525.8707847h2.3234982c0-.1742983-.0238954-.3338352-.0716869-.4786153-.0477915-.1447801-.118072-.2698795-.2108437-.3753019-.0927718-.1054224-.2059234-.1869478-.3394585-.2445787-.133535-.0576309-.2860438-.086446-.4575309-.086446zm2.7367519 3.7867539v-6.211457h.7548206v2.5554263c.1771097-.2052223.3802205-.3703816.6093385-.4954828.229118-.1251013.4912645-.187651.7864472-.187651.2473912 0 .4708834.0463852.6704831.1391569.1995998.0927717.3696787.2312244.5102419.4153622.1405632.1841378.2487953.4118468.3246994.6831337.0759041.271287.1138556.5840355.1138556.9382548 0 .3148615-.0421683.6079314-.1265062.8792184-.084338.271287-.2059233.506024-.3647597.7042181-.1588365.1981942-.3528108.354217-.5819288.4680732-.229118.1138562-.4870476.1707834-.7737966.1707834-.2755039 0-.5095381-.0534132-.7021097-.1602412-.1925716-.1068281-.3605421-.2558228-.5039165-.4469888l-.0379519.3879525c-.0224901.106828-.0871482.1602413-.1939763.1602413h-.4849406zm1.9060275-3.7403682c-.2445799 0-.4589356.0562244-.6430734.168675-.1841378.1124505-.3535139.2712846-.5081335.4765069v2.0662687c.1349407.1855435.2846383.3162653.4490972.3921694.164459.0759042.3478912.1138557.5503022.1138557.3991995 0 .7056227-.1419668.9192788-.4259044.2136561-.2839377.3204825-.6887537.3204825-1.21446 0-.2783152-.0245982-.5172691-.0737953-.7168688-.0491971-.1995998-.1201805-.3633534-.2129522-.491266-.0927717-.1279125-.2066262-.2213856-.3415669-.2804222-.1349407-.0590365-.2881523-.0885543-.4596394-.0885543zm4.5795264 3.7403682V44.76695l-.47229-.0548194c-.0590366-.0140563-.1075302-.0358432-.1454822-.0653615-.0379521-.0295183-.0569278-.0723894-.0569278-.1286147v-.3078319h.6747v-.4132537c0-.24458.0344374-.4617469.1033134-.6515072.068876-.1897604.1672687-.35.2951813-.4807238.1279125-.1307238.2818269-.2298194.4617478-.2972897.1799209-.0674703.3823289-.101205.60723-.101205.1911659 0 .3682729.0281122.5313262.0843375l-.0168675.3753019c-.0028112.0562253-.0267066.0899599-.0716868.101205-.0449803.011245-.1082327.0168675-.1897594.0168675h-.1307231c-.1293182 0-.2466867.0168673-.3521091.0506025-.1054224.0337352-.1960843.088554-.2719884.1644581-.0759042.0759041-.134237.1757025-.1750004.2993981-.0407633.1236957-.0611446.2769073-.0611446.4596394v.3921694h1.2355443v.5439769h-1.2102431v3.6433801h-.7548206zm2.6734988 0V44.125985h.4301212c.0815267 0 .1377511.0154617.168675.0463856.0309239.0309239.0520081.0843372.0632531.1602413l.0506025.6662663c.1461858-.297994.3268068-.5306227.5418685-.6978929.2150617-.1672702.4673689-.250904.7569291-.250904.1180731 0 .2248995.0133533.3204825.0400603s.1841364.0639557.2656631.1117472l-.0969881.5608443c-.0196789.0702817-.0632528.1054219-.1307231.1054219-.0393577 0-.099799-.0133533-.1813257-.0400603-.0815266-.026707-.1953811-.0400603-.3415669-.0400603-.2614475 0-.48002.075903-.655724.2277113-.175704.1518082-.3225904.3724891-.4406635.6620493v2.7198845h-.7506037zm6.5361563 0h-.3331331c-.0730929 0-.1321285-.0112449-.1771088-.033735-.0449802-.0224901-.074498-.0702809-.0885543-.1433738l-.0843375-.3963862c-.1124506.1012055-.2220883.1918674-.3289163.2719884-.106828.080121-.2192769.1475904-.33735.20241-.1180731.0548197-.2438753.0962852-.3774103.1243978-.1335351.0281127-.281827.0421688-.4448803.0421688-.1658646 0-.3211846-.0231926-.4659647-.0695785-.1447801-.0463858-.2705823-.1159636-.3774104-.2087353-.106828-.0927717-.1918674-.2101402-.2551209-.3521091-.0632534-.1419688-.0948797-.3099393-.0948797-.5039165 0-.1686759.0463852-.3310239.1391569-.4870491.0927717-.1560252.2424693-.2944778.4490972-.4153622.2066279-.1208844.477208-.2199799.8117484-.2972897.3345405-.0773098.7435733-.1215865 1.2271107-.1328316v-.3331331c0-.3317291-.0709834-.5826307-.2129522-.7527122-.1419688-.1700815-.3521077-.2551209-.6304228-.2551209-.1827322 0-.3366466.0231926-.4617478.0695784-.1251013.0463859-.2333333.0983935-.3246994.1560244-.0913661.0576309-.1700803.1096385-.236145.1560244-.0660647.0463858-.1314256.0695784-.1960847.0695784-.0506028 0-.0948795-.0133533-.1328316-.0400603-.0379521-.026707-.0681727-.0597389-.0906628-.0990966l-.13494-.2403619c.2361462-.2277123.4905618-.3977913.7632544-.5102418.2726926-.1124506.574899-.168675.9066281-.168675.2389575 0 .4512047.0393571.6367482.1180725.1855434.0787154.3415662.188353.4680731.3289162.1265069.1405632.2220884.3106422.2867475.5102419.0646591.1995998.0969881.4188751.0969881.6578325v2.7325351zm-1.9481963-.4596394c.1321295 0 .253012-.0133533.3626513-.0400603s.2129517-.0646585.3099403-.1138557c.0969886-.0491971.189759-.1089355.2783138-.1792171.0885548-.0702817.1749999-.1504015.2593378-.2403619v-.8897607c-.3457855.0112451-.6395582.0386545-.8813269.0822291-.2417687.0435746-.4385542.1005018-.5903625.1707834s-.2621487.1532127-.3310247.2487957c-.068876.0955829-.1033134.2024094-.1033134.3204825 0 .1124505.0182729.2094377.0548193.2909644.0365465.0815266.0857428.1482931.1475907.2003015.0618478.0520084.1349395.0899599.2192775.1138556.0843379.0238958.1757026.0358435.2740968.0358435zm3.0867526.4596394V44.125985h.4469888c.106828 0 .1742973.0520076.20241.1560244l.0548193.438555c.1574308-.1939772.333835-.3528113.5292179-.4765069.1953828-.1236956.422389-.1855425.6810253-.1855425.2895602 0 .5235944.0801198.7021097.2403619.1785153.160242.3071287.3767061.3858441.6493988.0590365-.1546196.1370479-.2881526.2340365-.4006032.0969886-.1124505.2059235-.2052209.3268078-.2783137.1208844-.0730929.2494978-.1265061.3858441-.1602413.1363463-.0337352.274799-.0506025.4153622-.0506025.2249011 0 .4252007.0358431.6009047.1075303.175704.0716873.3246988.1764053.4469888.3141572.1222899.137752.2157631.3071281.2804222.5081335.064659.2010053.0969881.4308227.0969881.689459v2.7198845h-.7506038V45.677795c0-.3345404-.0730918-.5882532-.2192775-.7611459-.1461857-.1728928-.358433-.2593378-.6367481-.2593378-.1236956 0-.2410642.0217869-.3521091.0653615-.1110449.0435746-.2087349.1075299-.2930728.1918679-.0843379.0843379-.1511045.1904615-.2003016.318374-.0491971.1279125-.0737953.2762045-.0737953.4448803v2.7198845h-.7506038V45.677795c0-.3429742-.0688749-.5987954-.2066268-.7674712-.137752-.1686759-.3387543-.2530125-.6030132-.2530125-.1855434 0-.3577307.0498992-.5165672.149699-.1588364.0997999-.3043171.2354414-.4364465.4069285v3.1837407h-.7506038zm8.6150758-4.3391645c.255825 0 .4919677.0428711.708435.1286147.2164673.0857436.4034136.2094373.5608444.371085.1574308.1616477.2804217.3612445.3689765.5987963.0885549.2375518.1328316.5081319.1328316.8117484 0 .1180731-.0126505.1967873-.0379519.236145-.0253013.0393577-.0730921.0590363-.1433737.0590363h-2.8421738c.0056225.2698813.0421684.5046184.1096387.7042181.0674704.1995998.1602407.3661647.2783138.4996997.1180731.1335351.2586342.2333334.4216875.2993981s.3457827.0990966.5481938.0990966c.1883547 0 .3507027-.021787.487049-.0653616.1363463-.0435746.2537149-.0906625.3521091-.1412653.0983942-.0506027.1806225-.0976907.2466872-.1412653.0660647-.0435746.1229919-.0653616.1707834-.0653616.0618478 0 .1096386.0238954.1433738.0716869l.2108437.2740969c-.0927717.1124506-.2038149.2101405-.3331331.2930728-.1293181.0829323-.2677708.1511044-.4153622.2045185-.1475914.053414-.3001001.0934739-.4575309.1201809-.1574308.026707-.3134536.0400603-.4680732.0400603-.2951827 0-.5671684-.0498992-.8159653-.149699-.2487969-.0997999-.4638553-.2459835-.6451819-.4385551-.1813265-.1925715-.3225904-.4308226-.4237959-.7147603s-.1518075-.6100394-.1518075-.978315c0-.297994.0456823-.576305.1370484-.8349413.0913661-.2586363.2227907-.4828312.3942778-.6725915.1714871-.1897604.3809232-.3387551.6283144-.4469888.2473913-.1082337.5257022-.1623497.8349413-.1623497zm.0168675.5524106c-.3626531 0-.6479921.1047181-.8560257.3141572-.2080335.2094392-.3373497.4996979-.3879525.8707847h2.3234982c0-.1742983-.0238954-.3338352-.0716869-.4786153-.0477915-.1447801-.118072-.2698795-.2108437-.3753019-.0927717-.1054224-.2059234-.1869478-.3394585-.2445787-.133535-.0576309-.2860438-.086446-.4575309-.086446zm2.1548231-.4849406h.5903626c.0618478 0 .1124498.0154617.1518075.0463856.0393577.0309239.0660643.0674698.0801206.1096388l.8180737 2.7494025c.0224902.1012055.0435743.1988955.0632532.2930729.0196788.0941773.0365462.189056.0506025.284639.0224901-.095583.0477911-.1904617.0759037-.284639.0281127-.0941774.0576305-.1918674.0885544-.2930729l.9024113-2.76627c.0140563-.042169.0386545-.0773092.0737953-.1054219.0351408-.0281126.0794175-.0421687.1328316-.0421687h.3246993c.0562253 0 .1026105.0140561.1391569.0421687.0365464.0281127.0618474.0632529.0759038.1054219l.8813269 2.76627c.0309239.0983943.0583333.1953814.082229.2909644.0238958.095583.0470883.1897589.0695785.2825307.0140563-.0927718.0323292-.1897589.0548193-.2909644s.0463855-.1953815.0716869-.2825307l.8349413-2.7494025c.0140563-.0449802.0407629-.0822289.0801206-.1117472.0393577-.0295183.0857429-.0442772.1391569-.0442772h.5650612l-1.383135 4.2716945h-.5945794c-.0730928 0-.1236948-.0477908-.1518075-.1433738l-.94458-2.8969932c-.0224901-.064659-.0407631-.1300199-.0548194-.1960847-.0140563-.0660647-.0281124-.1314256-.0421687-.1960846-.0140563.064659-.0281125.1307227-.0421688.1981931-.0140563.0674703-.0323292.133534-.0548193.1981931l-.9572307 2.8927763c-.0309239.095583-.0885539.1433738-.1728919.1433738h-.5650612L68.616993 44.125985zm8.745799-.06747c.3120503 0 .5938753.0520076.8454834.1560244s.465261.2516059.640965.4427719c.175704.1911659.3106427.4223889.40482.6936759.0941774.271287.1412653.5741962.1412653.9087366 0 .3373517-.0470879.6409637-.1412653.910845-.0941773.2698814-.229116.5004016-.40482.6915675-.175704.191166-.3893569.3380523-.640965.4406635-.2516081.1026111-.5334331.1539159-.8454834.1539159-.3120504 0-.5938754-.0513048-.8454835-.1539159-.2516081-.1026112-.4659638-.2494975-.6430734-.4406635-.1771097-.1911659-.313454-.4216861-.4090369-.6915675-.095583-.2698813-.1433738-.5734933-.1433738-.910845 0-.3345404.0477908-.6374496.1433738-.9087366.0955829-.271287.2319272-.50251.4090369-.6936759.1771096-.191166.3914653-.3387551.6430734-.4427719.2516081-.1040168.5334331-.1560244.8454835-.1560244zm0 3.8120551c.4216896 0 .7365464-.1412639.94458-.423796.2080335-.282532.3120487-.6768059.3120487-1.1828334 0-.5088388-.1040152-.9052211-.3120487-1.1891588-.2080336-.2839377-.5228904-.4259044-.94458-.4259044-.2136561 0-.3991968.0365459-.5566276.1096388-.1574307.0730928-.2888554.1785137-.3942778.3162656-.1054224.1377519-.1841366.3071281-.236145.5081335-.0520084.2010053-.0780122.4280115-.0780122.6810253 0 .2530137.0260038.4793171.0780122.6789169.0520084.1995997.1307226.3675702.236145.5039165.1054224.1363463.2368471.2410644.3942778.3141572.1574308.0730929.3429715.1096388.5566276.1096388zm2.9602463.5271094V44.125985h.4301212c.0815267 0 .1377511.0154617.168675.0463856.0309239.0309239.0520081.0843372.0632531.1602413l.0506025.6662663c.1461858-.297994.3268068-.5306227.5418685-.6978929.2150617-.1672702.4673689-.250904.7569291-.250904.1180731 0 .2248995.0133533.3204825.0400603s.1841364.0639557.2656631.1117472l-.0969881.5608443c-.0196789.0702817-.0632528.1054219-.1307232.1054219-.0393576 0-.0997989-.0133533-.1813256-.0400603-.0815266-.026707-.1953811-.0400603-.3415669-.0400603-.2614475 0-.48002.075903-.655724.2277113-.175704.1518082-.3225904.3724891-.4406635.6620493v2.7198845h-.7506037zm4.1789232-6.211457v3.6560307h.1939762c.0562253 0 .1026105-.0077309.1391569-.0231928.0365464-.015462.0773091-.0470882.1222894-.0948797l1.3494-1.4463882c.042169-.0449802.0843373-.0815261.1265062-.1096387.042169-.0281127.0983934-.0421688.168675-.0421688h.6831338l-1.5728944 1.6740994c-.0393577.0477915-.078012.0899598-.1159641.1265063-.037952.0365464-.0808232.0688755-.1286146.0969881.0506027.0337352.0962851.0723895.1370484.1159641.0407633.0435746.0794176.0934737.1159641.149699l1.6698825 2.1084376h-.6747c-.0618478 0-.1145582-.0119477-.1581328-.0358435-.0435746-.0238957-.0850402-.0611444-.1243979-.1117472l-1.4042194-1.7500031c-.0421689-.0590366-.0843372-.0976909-.1265062-.1159641-.042169-.0182732-.1054215-.0274097-.1897594-.0274097h-.2108437v2.0409676h-.7548207v-6.211457h.7548207z"/>
  </g>
</svg>
