<?xml version="1.0" encoding="UTF-8"?>
<svg width="460px" height="146px" viewBox="0 0 460 146" version="1.1" xmlns="http://www.w3.org/2000/svg" xmlns:xlink="http://www.w3.org/1999/xlink">
    <!-- Generator: Sketch 42 (36781) - http://www.bohemiancoding.com/sketch -->
    <title>mandsbank</title>
    <desc>Created with Sketch.</desc>
    <defs></defs>
    <g id="Page-1" stroke="none" stroke-width="1" fill="none" fill-rule="evenodd">
        <g id="mandsbank">
            <rect id="Rectangle-path" fill="#231F20" fill-rule="nonzero" x="0" y="0" width="459.7" height="145.1"></rect>
            <rect id="Rectangle-path" fill="#FFFFFF" fill-rule="nonzero" x="0" y="0" width="459.7" height="145.1"></rect>
            <polyline id="Shape" fill="#000000" fill-rule="nonzero" points="93.6 46.9 93.6 98.4 88.9 98.4 88.9 56.3 71.9 89.2 68.6 89.2 51.6 56.4 51.6 98.4 46.9 98.4 46.9 46.9 51.8 46.9 70.3 82.4 88.7 46.9"></polyline>
            <path d="M143.7,99.1 L135.1,90 C132,94.9 127.8,98.4 120.9,98.4 C112,98.4 105.4,92.2 105.4,84.6 C105.4,78.3 109.3,74.4 116.8,70.1 C112.5,65.8 110.2,62.3 110.2,58.1 C110.2,52 115.4,47.1 121.6,47.1 C128.2,47.1 133.2,52 133.2,58.1 C133.2,64 128.6,68 123.9,71 L134.5,82.6 L140.8,72.4 L144.6,74.8 L137.6,86 L147.1,96.1 L143.7,99.1 Z M119.8,73.3 C113.1,77 110.1,79.9 110.1,84.5 C110.1,89.7 114.8,94.1 120.9,94.1 C126.4,94.1 129.2,91.6 132.2,86.7 L119.8,73.3 Z M114.8,58 C114.8,60.9 116.7,63.3 120.9,67.8 C125.8,64.9 128.6,61.9 128.6,58 C128.6,54.2 126,51.1 121.6,51.1 C117.5,51.2 114.8,54.4 114.8,58 L114.8,58 Z" id="Shape" fill="#000000" fill-rule="nonzero"></path>
            <path d="M187,57.9 L182.7,59.4 C181,54 176.2,50.6 169.7,50.6 C162.6,50.6 158,54.1 158,60.1 C158,72.9 187.4,66.1 187.4,84.2 C187.4,92.8 180.5,98.9 170.1,98.9 C160.5,98.9 154.8,94.3 150.8,87 L154.8,84.6 C157.5,90.2 162.3,94.6 169.7,94.6 C178.3,94.6 182.7,90.7 182.7,84.2 C182.7,71.3 153.3,77.6 153.3,60.1 C153.3,49.7 162.7,46.3 169.6,46.3 C177.4,46.2 184.5,49.8 187,57.9" id="Shape" fill="#000000" fill-rule="nonzero"></path>
            <path d="M235.2,98.4 L215.3,98.4 L215.3,46.9 L234.2,46.9 C244.4,46.9 251.1,52 251.1,59.8 C251.1,66.5 247.2,70 243.4,71.8 C249.8,74 253.2,78.2 253.2,84 C253.1,92.7 246.1,98.4 235.2,98.4 L235.2,98.4 Z M220,93.9 L235.4,93.9 C243.4,93.9 248.3,90.1 248.3,84 C248.3,78 243.3,74.7 234.2,74.7 L220,74.7 L220,93.9 Z M220,70.2 L233.7,70.2 C241.4,70.2 246.2,66.4 246.2,60.2 C246.2,54.7 241.6,51.4 234,51.4 L220,51.4 L220,70.2 Z" id="Shape" fill="#000000" fill-rule="nonzero"></path>
            <path d="M309.3,98.4 L304.2,98.4 L298.2,84.1 L271.4,84.1 L265.4,98.4 L260.3,98.4 L281.7,46.9 L287.7,46.9 L309.3,98.4 Z M273.3,79.5 L296.4,79.5 L284.8,51.7 L273.3,79.5 Z" id="Shape" fill="#000000" fill-rule="nonzero"></path>
            <polyline id="Shape" fill="#000000" fill-rule="nonzero" points="360.5 98.4 357 98.4 323.6 55.2 323.6 98.4 318.8 98.4 318.8 46.9 323.1 46.9 355.8 89.1 355.8 46.9 360.5 46.9"></polyline>
            <polyline id="Shape" fill="#000000" fill-rule="nonzero" points="415.2 98.4 409.1 98.4 408.9 98.2 388.2 73.2 381.4 80.4 381.4 98.4 376.7 98.4 376.7 46.9 381.4 46.9 381.4 73.9 407 46.9 413.2 46.9 391.6 69.6"></polyline>
            <polyline id="Shape" points="0 145.1 0 0 459.7 0 459.7 145.1"></polyline>
        </g>
    </g>
</svg>