<?xml version="1.0" encoding="UTF-8"?>
<svg width="93px" height="30px" viewBox="0 0 93 30" version="1.1" xmlns="http://www.w3.org/2000/svg" xmlns:xlink="http://www.w3.org/1999/xlink">
    <!-- Generator: Sketch 42 (36781) - http://www.bohemiancoding.com/sketch -->
    <title>pictet</title>
    <desc>Created with Sketch.</desc>
    <defs></defs>
    <g id="Page-1" stroke="none" stroke-width="1" fill="none" fill-rule="evenodd">
        <g id="pictet" fill="#FFFFFF">
            <path d="M15.262957,28.527504 C14.653707,28.527504 14.528337,27.891254 14.528337,26.935384 C14.528337,26.244384 14.528337,25.386754 15.229707,25.386754 C15.875457,25.386754 15.965087,26.179254 15.965087,27.036004 C15.965087,27.700134 15.965087,28.527504 15.262957,28.527504 L15.262957,28.527504 Z M15.277357,24.754504 C14.214237,24.754504 13.606487,25.563634 13.606487,26.975754 C13.606487,28.381634 14.185607,29.155754 15.236107,29.155754 C16.300737,29.155754 16.886987,28.381634 16.886987,26.975754 C16.886987,25.543004 16.314987,24.754504 15.277357,24.754504 L15.277357,24.754504 Z M9.1027372,28.573634 C8.7006072,28.573634 8.2951072,28.345004 8.2951072,27.833384 C8.2951072,27.543754 8.5252372,27.247134 8.7338572,27.160634 L8.8869872,27.180534 C9.2542372,27.290034 9.8278572,27.458154 9.8278572,27.975404 C9.8278572,28.326034 9.5303572,28.573654 9.1027372,28.573654 L9.1027372,28.573634 Z M9.0615372,25.335884 C9.4265372,25.335884 9.6922872,25.612754 9.6922872,25.995134 C9.6922872,26.276004 9.5400372,26.445884 9.3734072,26.587004 L9.3249072,26.629904 L9.2432072,26.602904 C8.9022072,26.495034 8.4784572,26.360154 8.4784572,25.866784 C8.4784572,25.606534 8.6974572,25.335904 9.0615872,25.335904 L9.0615372,25.335884 Z M10.027037,26.894884 L9.8826572,26.831384 L10.022287,26.752084 C10.291287,26.589334 10.562537,26.376834 10.562537,25.874584 C10.562537,25.317584 10.079407,24.754454 9.1567872,24.754454 C8.2349072,24.754454 7.6137872,25.222454 7.6137872,25.914204 C7.6137872,26.376834 7.8120372,26.605954 8.1087872,26.805954 L8.2294072,26.885254 L8.0992872,26.962954 C7.6367872,27.189834 7.4042872,27.513584 7.4042872,27.947454 C7.4042872,28.693204 8.0230372,29.155704 9.0211572,29.155704 C10.076287,29.155704 10.732287,28.665454 10.732287,27.880084 C10.732287,27.427954 10.501537,27.115334 10.027037,26.894834 L10.027037,26.894884 Z M20.764037,26.218084 L20.671137,26.222084 L20.671137,25.417584 L20.777507,25.401884 C21.008387,25.371584 21.753257,25.373284 21.814387,25.373284 C22.243637,25.373284 22.358637,25.495534 22.503007,25.652534 L22.502257,24.749654 C22.335637,24.811554 22.150757,24.802054 22.009637,24.802054 L19.935007,24.802054 L19.935007,26.874304 C20.058757,26.840904 20.269007,26.814804 20.469757,26.804404 C20.892507,26.763904 21.242387,26.856004 21.478007,27.067784 C21.678007,27.248654 21.759637,27.445534 21.738257,27.812034 C21.699357,28.499034 21.225757,28.613284 20.703757,28.613284 C20.448257,28.613284 20.075387,28.552884 19.802507,28.424534 L19.599387,28.905154 C19.923887,29.067034 20.322887,29.155784 20.762387,29.155784 C22.172257,29.155784 22.623637,28.361784 22.623637,27.685034 C22.623637,27.546154 22.639537,27.066154 22.230137,26.674404 C21.886637,26.347404 21.393137,26.191904 20.764007,26.218154 L20.764037,26.218084 Z M4.1436372,28.485034 L4.1496372,24.773784 C3.7672572,25.132284 3.3602572,25.344904 2.8961372,25.502034 L3.2912572,25.625034 L3.3038572,28.485034 C3.3038572,28.910154 3.0961072,28.976784 2.9754772,29.108534 L4.4717272,29.108534 C4.3511072,28.976784 4.1432272,28.910154 4.1432272,28.485034 L4.1436372,28.485034 Z" id="path5862"></path>
            <path d="M69.149457,9.2633844 C68.865457,9.3390844 68.420457,9.3975044 68.130837,9.3975044 L59.672337,9.3975044 C59.382707,9.3975044 58.938457,9.3391044 58.652087,9.2633844 C58.545837,9.2438844 58.561587,9.3161844 58.561587,9.3161844 L58.557587,11.209434 C58.557587,11.302734 58.555587,11.349054 58.565587,11.388434 C58.582187,11.459434 58.657587,11.445534 58.678207,11.384434 C58.678207,11.384434 58.723407,11.189684 58.862337,11.009934 C59.105087,10.695804 59.504087,10.256684 60.146707,10.250434 L60.919457,10.251434 C61.337457,10.259434 62.607707,10.278834 62.937587,10.308534 L63.061457,10.321234 L63.061457,12.619854 L63.061457,17.922854 L63.061457,21.078734 C63.061457,22.614734 61.799957,22.900234 61.799957,22.900234 C61.746857,22.916234 61.712757,22.981234 61.797957,23.005734 C61.836957,23.019234 61.901207,23.019234 61.993087,23.019234 L65.979707,23.019234 C66.074107,23.019234 66.136707,23.019234 66.174837,23.005734 C66.259737,22.981234 66.226437,22.916234 66.172837,22.900234 C66.172837,22.900234 64.913087,22.614734 64.913087,21.078734 L64.912207,17.922854 L64.909207,12.619854 L64.908337,10.321234 L65.029837,10.308534 C65.358207,10.278734 66.468087,10.258534 66.883837,10.251434 L67.658837,10.250434 C68.299837,10.256434 68.696587,10.695804 68.942587,11.009934 C69.082087,11.189684 69.124957,11.384434 69.124957,11.384434 C69.147157,11.444834 69.221657,11.458734 69.238337,11.388434 C69.248337,11.349034 69.247337,11.302734 69.247337,11.209434 L69.243337,9.3161844 C69.243337,9.3161844 69.259237,9.2438844 69.150437,9.2633844 L69.149457,9.2633844 Z M92.057687,11.209384 L92.055687,9.3161344 C92.055687,9.3161344 92.073587,9.2438344 91.964687,9.2633344 C91.679557,9.3390344 91.235937,9.3974544 90.944307,9.3974544 L82.651557,9.3974544 C82.360807,9.3974544 81.917187,9.3390544 81.631187,9.2633344 C81.524807,9.2438344 81.538687,9.3161344 81.538687,9.3161344 L81.537807,11.209384 C81.537807,11.302684 81.531807,11.349004 81.544807,11.388384 C81.560207,11.459384 81.634907,11.445484 81.656057,11.384384 C81.656057,11.384384 81.699057,11.189634 81.838807,11.009884 C82.083307,10.695754 82.483057,10.256634 83.124057,10.250384 L83.897437,10.251384 C84.314187,10.259384 85.422187,10.278784 85.750437,10.308484 L85.874687,10.321184 L85.874687,12.619804 L85.874687,17.922804 L85.874687,21.078684 C85.874687,22.614684 84.614687,22.900184 84.614687,22.900184 C84.560287,22.916184 84.526187,22.981184 84.611687,23.005684 C84.650687,23.019184 84.714057,23.019184 84.806687,23.019184 L88.795437,23.019184 C88.888037,23.019184 88.950557,23.019184 88.988807,23.005684 C89.073307,22.981184 89.041607,22.916184 88.986807,22.900184 C88.986807,22.900184 87.726937,22.614684 87.726937,21.078684 L87.724937,17.922804 L87.720937,12.619804 L87.720937,10.321184 L87.843557,10.308484 C88.171807,10.278684 89.281557,10.258484 89.700687,10.251384 L90.470807,10.250384 C91.111807,10.256384 91.509807,10.695754 91.756807,11.009884 C91.894937,11.189634 91.940437,11.384384 91.940437,11.384384 C91.958337,11.444784 92.033837,11.458684 92.051687,11.388384 C92.062987,11.348984 92.057687,11.302684 92.057687,11.209384 L92.057687,11.209384 Z M47.403937,17.923004 C47.958437,20.356134 49.814057,23.226504 54.745437,23.226504 C55.696687,23.226504 56.592307,23.026504 57.230187,22.810754 C57.626807,22.677504 58.163937,22.423504 58.261437,22.290384 C58.279837,22.265784 59.027937,20.544254 59.235687,20.007134 C59.265787,19.927834 59.189687,19.911934 59.165987,19.937234 C58.550357,20.605234 57.748237,21.557234 56.462237,21.930104 C55.893487,22.093604 55.047737,22.268854 54.482107,22.268854 C51.895857,22.268854 49.969607,20.479984 49.378607,17.923734 C49.252487,17.381104 49.186607,16.805104 49.186607,16.203104 C49.186607,14.812354 49.458737,13.592604 49.972857,12.620734 L49.973607,12.620734 C50.782857,11.086484 52.194107,10.171354 54.082237,10.171354 C54.325857,10.171354 54.228237,10.170484 54.228237,10.167354 C55.775237,10.167354 56.612987,11.133234 56.954987,11.421984 C56.978687,11.442384 57.062107,11.467284 57.062107,11.366084 L57.064107,11.285584 L57.062107,9.2969544 C57.062107,9.1827044 56.984407,9.2248544 56.955857,9.2426544 C56.815357,9.3346544 56.672607,9.4405344 56.418737,9.4405344 C56.251357,9.4405344 56.070487,9.4215344 55.902987,9.3954344 C55.688857,9.3616344 55.026357,9.1890644 54.217237,9.1890644 C50.617857,9.1890644 48.771737,10.711934 47.898237,12.620684 C47.381107,13.749184 47.204107,15.013064 47.204107,16.175184 C47.204107,16.689314 47.260507,17.292314 47.404857,17.922934 L47.403937,17.923004 Z M34.541787,16.693764 C34.547787,16.699764 33.659667,16.710364 32.567917,16.654164 L32.564917,12.620414 L32.564037,12.205914 C32.564037,11.969914 32.592637,10.447414 32.637937,10.255914 C33.254317,10.180914 34.285687,10.210614 34.853687,10.210614 C36.829067,10.210614 37.683567,11.252734 37.915937,12.623234 L37.916817,12.623234 C37.963517,12.904734 37.985017,13.197484 37.985017,13.499864 C37.985017,15.265734 37.214637,16.693734 34.541887,16.693734 L34.541787,16.693764 Z M39.567537,12.620384 C39.253417,10.795384 37.873787,9.3803844 35.043167,9.3803844 L29.719167,9.3903844 C29.626267,9.3903844 29.562787,9.3913844 29.525537,9.4045844 C29.439037,9.4298844 29.473937,9.4954844 29.527537,9.5093344 C29.527537,9.5093344 30.787287,9.5949344 30.787287,11.131964 L30.787287,12.620714 L30.787287,17.923714 L30.787287,21.289214 C30.787287,22.825834 29.527537,22.912214 29.527537,22.912214 C29.473537,22.924914 29.438637,22.991614 29.525537,23.016964 C29.562837,23.029664 29.626287,23.031264 29.719167,23.031264 L33.668287,23.031264 C33.761187,23.031264 33.824667,23.030264 33.865037,23.016964 C33.948337,22.991564 33.916637,22.924964 33.861037,22.912214 C33.861037,22.912214 32.601287,22.825814 32.601287,21.289214 L32.601287,17.923714 L32.601287,17.531964 C33.445417,17.589764 34.875787,17.602464 34.875787,17.602464 C38.289537,17.602464 39.638167,15.723964 39.638167,13.479584 C39.638167,13.186714 39.615167,12.899964 39.567567,12.623584 L39.567537,12.620384 Z M44.328437,12.619584 L44.328437,11.133334 C44.328437,9.5973344 45.590567,9.5105844 45.590567,9.5105844 C45.645267,9.4966844 45.677067,9.4319844 45.591567,9.4058344 C45.552867,9.3945344 45.489317,9.3930344 45.396437,9.3930344 L41.577317,9.3930344 C41.484617,9.3930344 41.421187,9.3940344 41.383067,9.4058344 C41.297267,9.4319344 41.330667,9.4967344 41.383817,9.5105844 C41.383817,9.5105844 42.645187,9.5972844 42.645187,11.133334 L42.645187,12.619584 L42.645187,17.922584 L42.645187,21.291214 C42.645187,22.830214 41.383817,22.915964 41.383817,22.915964 C41.330717,22.928564 41.297317,22.992864 41.383067,23.018964 C41.421167,23.031664 41.484567,23.031664 41.577317,23.031664 L45.396437,23.031664 C45.489337,23.031664 45.552817,23.031664 45.591567,23.018964 C45.676567,22.992864 45.644767,22.928564 45.590567,22.915964 C45.590567,22.915964 44.328437,22.830264 44.328437,21.291214 L44.328437,17.922584 L44.328437,12.619584 Z M79.783317,20.970584 C79.783317,20.970584 79.687317,21.188084 79.523937,21.359334 C79.219317,21.690964 79.054937,21.830584 78.331437,22.009834 C77.697567,22.167084 76.837687,22.155084 76.837687,22.155084 C75.315187,22.155084 73.928437,21.993214 73.928437,21.993214 L73.928437,17.922584 L73.928437,16.615214 L77.164567,16.615214 C77.926067,16.615214 78.068937,17.232464 78.068937,17.232464 C78.073937,17.258764 78.107837,17.275364 78.120537,17.235464 C78.125537,17.214864 78.127537,17.183164 78.127537,17.137964 L78.127537,15.188714 C78.127537,15.141114 78.125537,15.110914 78.120537,15.091914 C78.107837,15.049814 78.073637,15.066514 78.068937,15.091914 C78.068937,15.091914 77.926067,15.709784 77.164567,15.709784 L73.928437,15.709784 L73.928437,12.619414 L73.928437,10.350034 L74.042687,10.333034 C74.674937,10.281534 75.784187,10.233034 76.868567,10.226664 C77.354937,10.232664 77.891937,10.270664 77.931687,10.270664 C78.571817,10.277664 78.968567,10.712664 79.215317,11.024914 C79.354937,11.206034 79.488187,11.400914 79.488187,11.400914 C79.506487,11.461114 79.580987,11.472714 79.601687,11.403914 C79.607687,11.363814 79.605687,11.316914 79.605687,11.224914 L79.603687,9.3150344 C79.603687,9.3150344 79.620287,9.2440344 79.511587,9.2643344 C79.227587,9.3400344 78.782467,9.3983344 78.492217,9.3983344 L77.132467,9.3983344 L70.988837,9.3943344 C70.895937,9.3943344 70.831717,9.3973344 70.794467,9.4086344 C70.708767,9.4344344 70.744467,9.4986344 70.795217,9.5130144 C70.795217,9.5130144 72.057467,9.7981344 72.057467,11.335264 L72.057467,12.619634 L72.057467,17.922634 L72.057467,21.085634 C72.057467,22.624014 70.799217,22.909514 70.799217,22.909514 C70.744517,22.923914 70.710317,22.988914 70.795217,23.015134 C70.834117,23.026434 70.898337,23.027834 70.991217,23.027834 L76.975337,23.027834 L79.823467,23.026834 C79.906767,23.026834 79.905067,22.929234 79.905067,22.929234 L79.907067,21.155364 C79.907067,21.057764 79.911067,21.008484 79.901067,20.968114 C79.883567,20.896014 79.805067,20.909514 79.784437,20.972114 L79.783317,20.970584 Z" id="path5874" fill-rule="nonzero"></path>
            <path d="M13.325587,2.0007544 C13.261287,1.7508844 13.074207,1.4196344 12.914707,1.2712544 C13.627957,0.95838436 14.492587,1.0952544 14.674337,1.2463544 C13.973837,1.3982244 13.562087,1.7103544 13.325587,2.0007244 L13.325587,2.0007544 Z M18.281587,2.8465044 C18.102337,3.0103844 17.585087,3.5438844 17.247837,3.6355044 C17.015457,3.6835044 17.097957,3.5280044 17.195637,3.4185044 C17.697007,2.8667544 17.995257,2.3823844 18.104007,2.1380044 C18.240387,1.8437544 18.301507,1.1721344 17.440007,1.2796344 C17.274137,1.2971344 16.746637,1.4203844 16.155507,1.8290044 C16.020637,1.9203044 16.023007,1.8029044 16.061107,1.7220044 C16.156307,1.5172544 16.614857,1.1443844 16.713987,1.0635044 C16.305487,0.73500436 13.976237,-0.56999564 11.463737,1.0885044 C11.151857,1.3117544 10.863237,1.3836344 10.700607,1.4458844 C10.593357,1.4807844 10.323737,1.6331344 10.320487,2.0618844 C10.330487,2.1419844 10.349087,2.1927544 10.462487,2.1666344 C10.827487,2.0646344 11.097987,1.8735044 11.339237,1.7908844 C11.543857,1.7001844 11.767607,1.8380844 11.520857,2.0007544 C11.205857,2.1863844 10.888487,2.3716344 10.725857,2.5818844 C10.634757,2.6898844 10.273737,3.1460044 10.812457,3.8377544 C10.969457,3.5815044 11.504957,2.9472544 12.268207,3.0463844 C13.005957,3.1129844 13.888087,3.9202544 13.734207,5.1591344 C13.667607,5.7723844 13.030457,6.4882544 12.187957,6.1265044 C11.894457,5.9765044 11.698587,5.7755044 11.535957,5.2193844 C11.363707,5.3241344 11.097957,5.6648844 11.308957,6.0852544 C11.345457,6.1821544 11.324857,6.2423844 11.231257,6.3148844 C11.134557,6.3743844 11.079007,6.5136344 11.156757,6.6545044 C11.808887,7.8182544 14.004887,7.2935044 14.386387,5.6172544 C14.414287,5.5259544 14.530007,5.5152544 14.526757,5.6758544 C14.474457,7.8413544 11.953257,8.9289744 10.200007,7.0611044 C9.9897572,6.8556044 9.7961372,6.8453544 9.5081372,6.9171044 C9.1940072,7.0111044 8.2095072,7.2217244 7.5422572,7.1019744 C7.5184572,7.5212244 7.5482572,8.6369744 9.2408872,9.0471044 C9.4590072,9.0903044 9.3185872,9.2029744 9.2318872,9.2511044 C8.4313872,9.6901044 7.7935072,9.6362244 7.3326372,9.4739744 C7.5213872,10.508104 8.5908872,10.951224 9.3206372,10.409354 C10.005387,9.9143544 10.460007,9.9528544 10.653507,10.016224 C10.795507,10.068224 10.857387,10.183604 10.650507,10.208604 C10.199887,10.259304 9.5802572,10.540604 9.3271372,11.319724 C9.0582572,12.149974 8.6600072,12.477604 8.4441372,12.527474 C8.8892572,12.657724 9.9785072,12.629104 10.581507,12.297474 C10.999507,12.066974 11.400137,11.340724 11.944387,11.366104 C12.027787,11.375104 12.080007,11.386004 11.954587,11.512854 C11.891187,11.573454 11.463587,11.983724 11.326337,12.601724 C11.288237,12.775104 11.110587,13.597724 10.682957,13.854854 C11.927707,14.302224 13.461957,13.580724 13.611207,11.797354 C13.623807,11.650854 13.723837,11.575474 13.785707,11.797354 C14.145087,13.082854 13.404087,14.393474 13.312837,14.509604 C15.502457,14.269224 15.561207,12.784224 15.535707,12.485854 C15.552507,12.178474 15.137587,10.859974 15.570707,10.478354 C15.683337,10.377224 15.779337,10.400954 15.747587,10.600854 C15.691187,10.948474 15.959457,11.488724 16.099837,11.855604 C16.464837,12.808724 16.041937,13.597724 15.696087,14.001224 C15.928457,13.890104 17.676207,13.149474 17.361207,11.600974 C17.293807,11.269724 16.852707,10.610724 16.862957,9.9031044 C16.868957,9.5442244 17.089087,9.1459744 17.207337,9.0554744 C17.331957,8.9606744 17.417587,9.0291744 17.390587,9.1549744 C17.349387,9.3331044 17.294587,9.9634744 17.600837,10.415724 C17.688837,10.544224 17.999087,11.026224 18.028457,11.908724 C19.185957,10.317724 18.649587,9.3331044 18.394957,8.9576044 C17.504837,7.6418544 17.891957,6.7953544 17.991207,6.5803544 C18.058607,6.4327244 18.212457,6.4029744 18.245837,6.5572544 C18.279037,6.7107544 18.212437,7.7080044 19.011337,8.6207544 C19.251707,8.9468844 19.213707,9.3391344 19.241457,9.5160044 C20.919337,6.1650044 18.538587,3.1542544 18.281457,2.8465044 L18.281587,2.8465044 Z M24.438587,9.0357544 C23.963337,9.7211344 23.907837,9.6663844 23.574587,10.279634 C23.166837,11.026254 22.935207,12.684254 23.819837,13.812754 C23.985587,12.297884 25.256457,11.634254 25.647587,11.092004 C26.079207,10.494634 25.872207,9.9722544 25.711087,9.6758844 C25.501587,9.2902544 25.631787,8.9877544 25.699187,8.6485044 C25.865687,7.8182544 25.747587,7.2661344 25.567557,6.7901344 C25.223937,5.8833844 23.597687,5.0368844 22.050687,6.4355044 C21.906187,6.6017544 17.244557,10.378384 19.583307,18.203884 C19.949057,19.563634 19.274807,20.449004 18.655187,20.924134 C18.012557,21.417754 16.732057,21.706384 15.734057,20.990934 C13.346187,19.275684 14.340937,15.936554 15.115187,14.642184 C14.928057,14.805684 14.043437,15.236054 12.329057,15.172684 C12.495687,14.940934 12.828057,14.418434 12.902687,14.190434 C11.354807,15.124184 9.9339372,14.205034 9.7079372,13.918304 C10.066437,13.735434 10.453687,13.531184 10.680557,12.817554 C10.260057,13.176934 8.5734372,13.525184 7.2993072,12.726354 C8.0434372,12.385984 8.4195572,11.855734 8.5131872,11.634354 C8.1751872,11.756104 5.7205572,12.314234 3.1518072,11.747104 C2.1569372,11.532354 1.9165572,12.244854 1.8665572,12.629984 C1.3938072,12.900104 1.0866872,14.069854 2.1974372,14.387984 C2.1974372,14.797734 2.5298072,15.825604 4.0561872,14.874734 C5.2056872,14.110734 6.9431872,13.990234 7.7174372,14.023104 C7.2414372,15.693104 7.5405572,16.289734 9.5079372,19.044104 C10.193437,20.027854 10.050687,21.327354 8.7345572,21.327354 L2.1649372,21.327354 L2.1649372,23.034604 L23.765057,23.034604 L23.765057,21.327354 L20.630557,21.327354 C22.006187,20.116734 21.242937,17.910484 21.087557,17.418484 C19.030437,10.936984 21.856307,7.9231044 22.779687,7.0886044 C24.051307,5.9723544 25.732557,7.0664044 24.438557,9.0358544 L24.438587,9.0357544 Z M8.4941472,4.0746044 C9.3231472,4.4979844 10.283017,4.4229844 10.852647,4.3127344 C12.306767,4.0306044 12.694017,4.0746044 12.997767,4.1742344 C13.313647,4.2777344 13.338147,4.5367344 13.308767,4.6259844 C13.284167,4.7009844 13.217467,4.7878544 12.989897,4.7601044 C12.795517,4.7347044 12.193397,4.6259844 11.313647,4.9211044 C9.4603972,5.5419844 8.6677672,4.5728544 8.4941472,4.0746044 L8.4941472,4.0746044 Z M17.002647,0.79335436 C16.727267,0.57685436 16.266397,0.36060436 15.849897,0.28248436 C16.589267,-0.32314564 17.761897,0.13773436 17.002647,0.79335436 L17.002647,0.79335436 Z M2.4560172,15.588354 C2.3116472,15.558954 1.9268972,15.448734 1.8332672,15.034604 C1.7467672,15.201234 1.4651472,16.495984 2.5773972,16.470484 C2.1625172,16.276234 2.4005172,15.704854 2.4560172,15.588354 L2.4560172,15.588354 Z M1.6515172,14.723104 C1.4921472,14.689504 1.1740172,14.554984 1.1390172,14.181734 C1.0200172,14.355104 0.22751716,15.235354 1.2263172,15.816854 C1.0716972,15.362984 1.3644472,14.956104 1.6515672,14.723104 L1.6515172,14.723104 Z M1.0906972,13.856854 C0.96056716,13.642354 0.88369716,13.391604 1.0510972,13.021484 C0.85984716,13.111184 -0.45465284,13.731484 0.26959716,14.692984 C0.27359716,14.129854 0.82022716,13.913234 1.0907272,13.856854 L1.0906972,13.856854 Z M1.4064772,12.494734 C1.4413772,12.317354 1.5190972,11.954104 1.9395972,11.745854 C1.7777272,11.733354 0.11809716,11.691954 0.37122716,12.981484 C0.53459716,12.376104 1.2192272,12.462984 1.4064772,12.494734 L1.4064772,12.494734 Z M4.7313472,8.9246044 C5.5247272,9.9477344 6.4115972,10.237734 7.3628472,10.691104 C6.7742272,10.234484 6.6417272,9.3034844 6.6139772,8.8022344 C6.9122272,8.9354844 7.3962272,9.0961044 8.0180972,9.0822344 C7.1525972,8.5506044 6.9868472,7.8933544 6.8979772,6.9616044 C6.2354772,6.7569844 5.8142272,6.7617344 4.1894772,5.4856044 C3.0280972,4.5304844 2.0213472,5.1924844 2.0824772,5.7672344 C1.9332272,5.8331344 1.0589772,6.3031044 1.6674772,7.2047344 C1.5754772,7.5423544 1.7555772,8.5268544 2.8574772,8.3967344 C3.1430972,8.3997344 3.9784772,7.9683544 4.7313472,8.9246044 L4.7313472,8.9246044 Z M1.2279772,7.6871044 C1.1558772,8.0837344 1.4484772,8.3936044 1.5650972,8.4432344 C1.4984972,8.4761344 0.97884716,8.7449844 1.2898472,9.2512344 C0.31884716,8.7652344 1.0224772,7.8513544 1.2279472,7.6871044 L1.2279772,7.6871044 Z M1.1319472,7.3222344 C1.0034472,7.1711044 0.92644716,6.9008544 0.94944716,6.6308544 C0.74319716,6.7402344 -0.24443284,7.1147344 0.39419716,8.0647344 C0.24894716,7.5197344 0.94631716,7.3496044 1.1319472,7.3222344 L1.1319472,7.3222344 Z M1.5643172,5.5038544 C0.70044716,5.4182544 -0.13743284,5.7323544 0.01894716,6.6946044 C0.18556716,6.0116044 0.87656716,6.1861044 1.0375672,6.2202344 C1.1740672,5.7767344 1.4239472,5.5947344 1.5643172,5.5038544 L1.5643172,5.5038544 Z M1.8189472,5.1556044 C2.1355672,4.8259844 2.4060672,4.7192344 2.6781972,4.7316044 C2.4219472,4.6058544 1.1843172,3.9477344 0.85431716,5.1948544 C1.2454472,4.7688544 1.7420672,5.0996544 1.8189472,5.1555544 L1.8189472,5.1556044 Z" id="path5900"></path>
        </g>
    </g>
</svg>