<?xml version="1.0" encoding="utf-8"?>
<!-- Generator: Adobe Illustrator 15.0.0, SVG Export Plug-In . SVG Version: 6.00 Build 0)  -->
<svg version="1.2" baseProfile="tiny" id="Layer_1" xmlns="http://www.w3.org/2000/svg" xmlns:xlink="http://www.w3.org/1999/xlink"
	 x="0px" y="0px" width="308.858px" height="141.536px" viewBox="0 0 308.858 141.536" xml:space="preserve">
<g>
	<path fill-rule="evenodd" fill="#232A2A" d="M302.035,79.161c-3.785,0-6.837,3.093-6.837,6.857c0,3.769,3.052,6.81,6.837,6.81
		c3.744,0,6.823-3.041,6.823-6.81C308.858,82.254,305.779,79.161,302.035,79.161 M302.035,91.223c-2.885,0-5.205-2.333-5.205-5.205
		c0-2.867,2.32-5.205,5.205-5.205c2.854,0,5.187,2.338,5.187,5.205C307.222,88.89,304.889,91.223,302.035,91.223"/>
	<path fill-rule="evenodd" fill="#232A2A" d="M304.59,84.931v-0.565c0-0.985-0.574-1.971-2.302-1.971h-1.912
		c-0.452,0-0.814,0.368-0.814,0.809v5.63c0,0.454,0.362,0.82,0.814,0.82c0.447,0,0.836-0.366,0.836-0.82v-1.936h0.679l1.035,2.209
		c0.158,0.38,0.407,0.547,0.765,0.547c0.442,0,0.805-0.366,0.805-0.82c0-0.143-0.014-0.253-0.086-0.364l-0.909-1.824
		C304.229,86.333,304.59,85.735,304.59,84.931 M302.962,84.842c0,0.339-0.213,0.645-0.846,0.645h-0.904v-1.625h1.018
		c0.538,0,0.732,0.305,0.732,0.642V84.842z"/>
	<path fill="#232A2A" d="M284.834,81.912c-1.845-1.935-4.183-1.37-6.561,0.287c-1.655,1.149-4.418,1.26-2.885-5.227
		c1.456-6.159,6.769-16.212,7.523-18.012c1.059-2.51-0.307-5.607-4.824-5.982c-1.953-0.145-3.866,0.292-5.77,1.856
		c-2.085-2.367-5.295-4.556-10.441-4.556c-8.355,0-19.863,6.38-26.614,16.658c-3.713,5.557-8.813,11.605-14.538,15.374
		c-1.759,1.18-3.803,1.802-5.064,1.352c-2.604-0.954-1.867-4.779,3.74-11.168c8.989-10.251,11.548-17.96,6.325-22.525
		c-3.554-3.1-9.4-3.45-15.338-0.653c-6.299,2.953-9.87,6.19-13.148,9.539c8.243-17.067,18.534-37.015,25.385-48.225
		c3.156-5.231,3.156-9.71-1.312-10.497c-3.929-0.685-7.927,1.208-11.123,7.909c-7.353,15.406-13.394,29.068-20.588,44.426v-0.027
		c-4.657,9.358-13.23,22.453-24.467,29.871c-1.76,1.18-3.799,1.802-5.064,1.352c-2.632-0.954-1.858-4.779,3.726-11.168
		c8.976-10.251,11.558-17.96,6.335-22.525c-3.567-3.1-9.423-3.45-15.36-0.653c-7.8,3.663-11.408,7.737-15.482,11.933
		c3.428-5.218,3.039-10.021-0.244-11.072c-4.296-1.381-6.534,0.31-10.635,11.908c-2.085,5.682-7.746,16.457-15.781,20.115
		c-1.858,0.844-5.259,1.26-3.717-5.227c1.465-6.159,6.755-16.212,7.51-18.012c1.063-2.51-0.294-5.607-4.793-5.982
		c-1.989-0.145-3.884,0.292-5.765,1.856c-2.094-2.367-5.331-4.556-10.477-4.556c-10.893,0-27.194,10.866-31.231,27.076
		c-1.908,2.76-5.544,5.688-10.188,5.831c-8.32,0.217-12.878-7.144-14.836-15.702c18.72-3.685,36.337-14.117,39.75-30.549
		c3.238-15.56-7.438-29.043-26.615-28.63C25.892,8.85,8.089,27.886,3.83,35.956c-2.984,5.641-0.24,10.178,3.531,9.988
		c2.713-0.111,7.782-1.885,9.392-7.427c2.542-8.792,12.557-18.923,29.536-20.341c12.846-1.083,20.145,7.07,18.955,17.619
		c-1.465,12.889-14.089,20.271-27.121,23.59l-0.032-0.813c-0.027-3.968-0.362-6.667-3.043-7.542
		c0.023-1.404-0.579-2.496-1.976-3.145c-2.193-0.981-5.191-0.87-7.678,2.912c-9.08,13.988-13.493,20.49-22.31,32.046
		c-4.034,5.34-4.156,10.891-0.1,12.039c4.16,1.185,8.058-0.531,11.417-5.903c4.445-7.122,8.166-14.085,11.431-20.031
		c0.886-0.014,1.799-0.068,2.686-0.12c0.574,11.682,6.48,27.769,22.523,25.157c5.892-0.959,9.966-4.074,13.113-7.034
		c2.306,6.552,10.065,8.098,17.815,4.436c7.805-3.671,11.395-7.723,15.469-11.942c-4.708,12.012,4.318,20.836,18.467,9.419
		c0.601-0.504,1.175-0.986,1.736-1.431c-7.081,14.793-15.636,31.268-20.949,42.547c-3.618,7.673-1.94,11.16,2.573,11.526
		c4.503,0.337,7.149-1.996,9.866-8.492c3.654-8.743,10.776-27.754,21.985-49.572c10.694-20.845,24.449-25.968,27.145-24.193
		c2.885,1.865-1.153,6.496-7.263,14.262c-6.683,8.462-6.38,15.469-3.151,18.363c4.065,3.685,11.372,4.33,20.443-3.009
		c2.771-2.252,4.797-4.162,6.43-5.876c-2.845,5.682-3.971,9.896-0.118,11.442c2.568,1.017,5.992,0.28,7.724-3.572
		c2.527-5.648,8.293-15.487,14.623-22.354c8.04-8.725,15.279-10.33,16.943-9.256c2.862,1.865-1.176,6.496-7.303,14.262
		c-6.67,8.462-6.357,15.469-3.147,18.363c4.079,3.685,11.373,4.33,20.452-3.009c2.582-2.08,4.509-3.909,6.082-5.514
		c0.456,9.534,9.445,12.288,18.472,8.037c7.79-3.671,11.408-7.723,15.495-11.942c-4.183,12.623,7.443,20.138,18.888,9.733
		C285.738,86.529,286.159,83.269,284.834,81.912 M84.58,80.486c-4.644,2.894-10.73,1.768-7.949-6.667
		c2.623-7.895,9.509-12.469,13.737-12.469c4.472,0,6.638,2.772,7.909,5.103C95.368,71.087,91.186,76.351,84.58,80.486
		 M251.053,80.486c-4.64,2.894-10.717,1.768-7.945-6.667c2.637-7.895,9.18-12.469,13.416-12.469c4.485,0,6.914,2.792,8.226,5.121
		C261.851,71.087,257.658,76.351,251.053,80.486"/>
</g>
</svg>
