<?xml version="1.0" encoding="utf-8"?>
<!-- Generator: Adobe Illustrator 16.0.0, SVG Export Plug-In . SVG Version: 6.00 Build 0)  -->
<!DOCTYPE svg PUBLIC "-//W3C//DTD SVG 1.1//EN" "http://www.w3.org/Graphics/SVG/1.1/DTD/svg11.dtd">
<svg version="1.1" id="Layer_1" xmlns="http://www.w3.org/2000/svg" xmlns:xlink="http://www.w3.org/1999/xlink" x="0px" y="0px"
	 width="93.962px" height="77.833px" viewBox="0 0 93.962 77.833" enable-background="new 0 0 93.962 77.833" xml:space="preserve">
<g>
	<path d="M9.225,74.629c-0.064-1.634-0.401-2.082-1.585-2.306v-0.032c1.281-0.177,1.745-0.577,1.745-2.547
		c0-1.682-0.176-2.226-0.608-2.658c-0.336-0.336-0.833-0.464-1.569-0.464H0.4v1.521h1.505v8.167H0.4v1.522h4.756V76.31H3.619v-3.362
		h2.37c0.561,0,0.833,0.048,1.089,0.305c0.208,0.207,0.32,0.496,0.352,1.393c0.064,2.21,0.192,2.643,0.433,2.883
		c0.192,0.191,0.432,0.305,1.105,0.305h1.617v-1.554H9.304C9.272,75.783,9.24,75.125,9.225,74.629L9.225,74.629z M3.619,71.506
		v-3.363h3.027c0.464,0,0.625,0.049,0.705,0.128c0.144,0.145,0.208,0.417,0.208,1.569c0,1.153-0.064,1.394-0.208,1.538
		c-0.08,0.08-0.24,0.128-0.705,0.128H3.619L3.619,71.506z M26.887,77.833V76.31H25.35l0.592-1.985c1.025,0,2.915-0.016,3.892-0.016
		l0.593,2.001h-1.538v1.522h4.644V76.31h-1.217l-2.899-9.191c-0.144-0.449-0.288-0.545-0.769-0.545h-1.345
		c-0.48,0-0.625,0.096-0.769,0.545l-2.898,9.191h-1.217v1.522H26.887L26.887,77.833z M27.768,68.143h0.24l1.394,4.725h-3.043
		L27.768,68.143L27.768,68.143z M54.991,74.629c-0.063-1.634-0.4-2.082-1.585-2.306v-0.032c1.281-0.177,1.745-0.577,1.745-2.547
		c0-1.682-0.176-2.226-0.608-2.658c-0.336-0.336-0.833-0.464-1.569-0.464h-6.807v1.521h1.506v8.167h-1.506v1.522h4.757V76.31h-1.537
		v-3.362h2.37c0.561,0,0.832,0.048,1.089,0.305c0.208,0.207,0.32,0.496,0.352,1.393c0.064,2.21,0.192,2.643,0.433,2.883
		c0.192,0.191,0.433,0.305,1.105,0.305h1.617v-1.554h-1.281C55.039,75.783,55.007,75.125,54.991,74.629L54.991,74.629z
		 M49.386,71.506v-3.363h3.026c0.465,0,0.624,0.049,0.704,0.128c0.145,0.145,0.209,0.417,0.209,1.569
		c0,1.153-0.064,1.394-0.209,1.538c-0.08,0.08-0.239,0.128-0.704,0.128H49.386L49.386,71.506z M70.251,68.143v8.167h-1.506v1.522
		h8.904v-3.619h-1.682v2.097h-4.003v-3.555h3.011v-1.474h-3.011v-3.139h3.875V70h1.682v-3.378h-8.776v1.521H70.251L70.251,68.143z"
		/>
	<path d="M4.468,55.641V54.12H2.931l0.593-1.986c1.025,0,2.915-0.016,3.891-0.016l0.593,2.002H6.47v1.521h4.645V54.12H9.897
		l-2.898-9.192c-0.145-0.448-0.289-0.545-0.769-0.545H4.884c-0.48,0-0.625,0.097-0.769,0.545L1.217,54.12H0v1.521H4.468
		L4.468,55.641z M5.349,45.952h0.24l1.394,4.725H3.939L5.349,45.952L5.349,45.952z M42.821,52.438
		c-0.064-1.634-0.4-2.082-1.586-2.307V50.1c1.281-0.177,1.746-0.577,1.746-2.547c0-1.682-0.177-2.226-0.608-2.658
		c-0.337-0.336-0.833-0.465-1.57-0.465h-6.806v1.521h1.505v8.168h-1.505v1.521h4.756V54.12h-1.537v-3.363h2.37
		c0.561,0,0.833,0.048,1.089,0.305c0.208,0.208,0.32,0.496,0.352,1.393c0.064,2.21,0.192,2.643,0.433,2.883
		c0.192,0.192,0.433,0.305,1.104,0.305h1.618v-1.554h-1.281C42.869,53.59,42.836,52.934,42.821,52.438L42.821,52.438z
		 M37.216,49.315v-3.363h3.026c0.464,0,0.625,0.049,0.705,0.129c0.145,0.144,0.208,0.416,0.208,1.569
		c0,1.152-0.064,1.393-0.208,1.537c-0.08,0.08-0.24,0.128-0.705,0.128H37.216L37.216,49.315z M70.251,45.952v8.168h-1.506v1.521
		h8.904v-3.62h-1.682v2.099h-4.003v-3.556h3.011V49.09h-3.011v-3.139h3.875v1.858h1.682v-3.38h-8.776v1.521H70.251L70.251,45.952z"
		/>
	<path d="M9.144,30.198c0-1.521-0.128-2.13-0.56-2.562c-0.336-0.336-0.833-0.448-1.602-0.528l-3.363-0.32
		c-0.448-0.048-0.608-0.064-0.736-0.192c-0.176-0.176-0.192-0.417-0.192-1.201c0-0.849,0.032-1.265,0.176-1.409
		c0.128-0.128,0.272-0.144,0.721-0.144h2.674c0.48,0,0.608,0.048,0.705,0.144c0.128,0.128,0.176,0.384,0.208,1.698h1.778
		c-0.064-2.002-0.176-2.515-0.641-2.979c-0.353-0.352-0.865-0.464-1.746-0.464H3.267c-0.849,0-1.361,0.176-1.698,0.513
		c-0.512,0.512-0.656,1.217-0.656,2.658c0,1.474,0.08,2.066,0.528,2.514c0.336,0.336,0.817,0.464,1.633,0.544l3.363,0.32
		c0.448,0.048,0.608,0.08,0.736,0.208c0.176,0.176,0.192,0.4,0.192,1.217c0,0.945-0.032,1.345-0.176,1.49
		c-0.128,0.128-0.272,0.144-0.736,0.144H3.459c-0.48,0-0.608-0.048-0.705-0.144c-0.128-0.128-0.176-0.385-0.208-1.778H0.769
		c0.032,2.05,0.176,2.594,0.641,3.059c0.353,0.353,0.865,0.464,1.746,0.464h3.604c0.896,0,1.393-0.176,1.729-0.512
		C9,32.424,9.144,31.752,9.144,30.198L9.144,30.198z M22.311,31.928v-8.167h2.322v2.178h1.681v-3.699h-9.721v3.699h1.682v-2.178
		h2.322v8.167h-1.585v1.521h4.884v-1.521H22.311L22.311,31.928z M36.935,33.449v-1.521h-1.537l0.592-1.986
		c1.025,0,2.915-0.016,3.892-0.016l0.592,2.002h-1.537v1.521h4.645v-1.521h-1.218l-2.898-9.192
		c-0.144-0.448-0.288-0.544-0.769-0.544h-1.345c-0.48,0-0.625,0.096-0.769,0.544l-2.898,9.192h-1.217v1.521H36.935L36.935,33.449z
		 M37.816,23.761h0.24l1.394,4.724h-3.043L37.816,23.761L37.816,23.761z M59.983,30.247c-0.063-1.633-0.4-2.082-1.585-2.306v-0.032
		c1.281-0.176,1.745-0.577,1.745-2.546c0-1.682-0.176-2.226-0.608-2.659c-0.336-0.336-0.833-0.464-1.569-0.464h-6.807v1.521h1.506
		v8.167h-1.506v1.521h4.757v-1.521h-1.537v-3.363h2.37c0.561,0,0.832,0.048,1.089,0.304c0.208,0.208,0.32,0.497,0.353,1.394
		c0.063,2.21,0.191,2.642,0.432,2.882c0.192,0.192,0.433,0.304,1.105,0.304h1.617v-1.553h-1.281
		C60.031,31.399,60,30.743,59.983,30.247L59.983,30.247z M54.378,27.124v-3.363h3.026c0.465,0,0.624,0.048,0.704,0.128
		c0.145,0.145,0.209,0.417,0.209,1.57c0,1.153-0.064,1.393-0.209,1.537c-0.08,0.08-0.239,0.128-0.704,0.128H54.378L54.378,27.124z
		 M77.425,30.198c0-1.521-0.128-2.13-0.56-2.562c-0.337-0.336-0.833-0.448-1.602-0.528l-3.363-0.32
		c-0.448-0.048-0.608-0.064-0.736-0.192c-0.177-0.176-0.192-0.417-0.192-1.201c0-0.849,0.032-1.265,0.176-1.409
		c0.128-0.128,0.272-0.144,0.721-0.144h2.674c0.48,0,0.609,0.048,0.705,0.144c0.128,0.128,0.177,0.384,0.209,1.698h1.776
		c-0.063-2.002-0.175-2.515-0.641-2.979c-0.352-0.352-0.864-0.464-1.744-0.464h-3.3c-0.849,0-1.361,0.176-1.697,0.513
		c-0.513,0.512-0.657,1.217-0.657,2.658c0,1.474,0.081,2.066,0.529,2.514c0.336,0.336,0.816,0.464,1.634,0.544l3.362,0.32
		c0.448,0.048,0.609,0.08,0.737,0.208c0.176,0.176,0.191,0.4,0.191,1.217c0,0.945-0.031,1.345-0.176,1.49
		c-0.129,0.128-0.272,0.144-0.737,0.144h-2.994c-0.48,0-0.608-0.048-0.704-0.144c-0.129-0.128-0.177-0.385-0.209-1.778H69.05
		c0.032,2.05,0.176,2.594,0.641,3.059c0.353,0.353,0.865,0.464,1.745,0.464h3.604c0.897,0,1.394-0.176,1.729-0.512
		C77.282,32.424,77.425,31.752,77.425,30.198L77.425,30.198z"/>
	<path d="M9.225,8.055C9.16,6.422,8.824,5.974,7.639,5.75V5.717C8.92,5.541,9.384,5.141,9.384,3.171
		c0-1.682-0.176-2.226-0.608-2.658C8.439,0.176,7.943,0.048,7.207,0.048H0.4v1.521h1.505v8.167H0.4v1.521h4.756V9.737H3.619V6.374
		h2.37c0.561,0,0.833,0.048,1.089,0.305c0.208,0.208,0.32,0.496,0.352,1.393c0.064,2.21,0.192,2.643,0.433,2.883
		c0.192,0.192,0.432,0.304,1.105,0.304h1.617V9.705H9.304C9.272,9.208,9.24,8.552,9.225,8.055L9.225,8.055z M3.619,4.933V1.569
		h3.027c0.464,0,0.625,0.048,0.705,0.128c0.144,0.144,0.208,0.416,0.208,1.569c0,1.153-0.064,1.393-0.208,1.537
		c-0.08,0.08-0.24,0.128-0.705,0.128H3.619L3.619,4.933z M24.811,1.569v8.167h-1.505v1.521h8.904V7.639h-1.681v2.098h-4.004V6.182
		h3.011V4.708h-3.011V1.569h3.875v1.858h1.682V0.048h-8.776v1.521H24.811L24.811,1.569z M49.685,11.258V9.737h-1.537l0.592-1.986
		c1.025,0,2.915-0.016,3.892-0.016l0.593,2.002h-1.537v1.521h4.644V9.737h-1.217l-2.898-9.192C52.071,0.096,51.927,0,51.447,0
		h-1.346c-0.48,0-0.624,0.096-0.769,0.544l-2.898,9.192h-1.217v1.521H49.685L49.685,11.258z M50.566,1.569h0.24l1.393,4.724h-3.042
		L50.566,1.569L50.566,1.569z M70.972,9.737h-1.505v1.521h8.52V7.559h-1.683v2.178h-3.619V1.569h1.586V0.048h-4.804v1.521h1.505
		V9.737L70.972,9.737z"/>
	<polygon fill="#002D73" points="87.645,63.318 88.938,67.107 92.72,67.107 89.738,69.471 90.829,73.208 87.645,71.004 
		84.461,73.208 85.552,69.471 82.541,67.107 86.378,67.107 87.645,63.318 	"/>
	<path fill="#C3002F" d="M91.585,74.257l-3.94-2.727l-3.94,2.727l1.351-4.627l-3.768-2.955h4.78l1.573-4.709l1.606,4.709h4.715
		l-3.729,2.954L91.585,74.257z M83.792,67.54l2.258,1.772l-0.831,2.846l2.427-1.679l2.426,1.679l-0.83-2.845l2.237-1.773h-2.849
		l-0.979-2.87l-0.959,2.87H83.792z"/>
</g>
</svg>
