<svg width="20" height="20" xmlns="http://www.w3.org/2000/svg"><path d="M10 0C4.477 0 0 4.59 0 10.253c0 4.53 2.865 8.373 6.839 9.729.5.094.682-.222.682-.494 0-.243-.008-.888-.013-1.744-2.782.62-3.369-1.374-3.369-1.374-.454-1.185-1.11-1.5-1.11-1.5-.908-.636.069-.624.069-.624 1.003.073 1.531 1.057 1.531 1.057.892 1.567 2.341 1.114 2.91.852.092-.662.35-1.114.636-1.37-2.22-.26-4.555-1.139-4.555-5.068 0-1.119.39-2.035 1.029-2.751-.103-.26-.446-1.302.098-2.714 0 0 .84-.275 2.75 1.052A9.357 9.357 0 0110 4.958c.85.004 1.705.118 2.504.346 1.909-1.327 2.747-1.052 2.747-1.052.546 1.412.203 2.455.1 2.714.64.716 1.028 1.632 1.028 2.751 0 3.94-2.339 4.806-4.566 5.06.359.316.678.942.678 1.898 0 1.37-.012 2.477-.012 2.813 0 .274.18.593.688.493C17.137 18.622 20 14.782 20 10.253 20 4.59 15.522 0 10 0" fill="#161514" fill-rule="evenodd"/></svg>