<svg width="21" height="20" viewBox="0 0 21 20" fill="none" xmlns="http://www.w3.org/2000/svg">
<path fill-rule="evenodd" clip-rule="evenodd" d="M10.5428 0C5.02143 0 0.543701 4.59042 0.543701 10.2534C0.543701 14.7834 3.40874 18.626 7.38246 19.9818C7.88278 20.0762 8.06511 19.7596 8.06511 19.4877C8.06511 19.2448 8.05652 18.5996 8.05161 17.7442C5.27006 18.3636 4.68318 16.3695 4.68318 16.3695C4.22828 15.185 3.57265 14.8696 3.57265 14.8696C2.6647 14.2339 3.6414 14.2465 3.6414 14.2465C4.64512 14.3189 5.17306 15.3033 5.17306 15.3033C6.06505 16.8699 7.51384 16.4174 8.08353 16.1549C8.17438 15.4927 8.43283 15.0408 8.71829 14.7846C6.49784 14.5259 4.16321 13.646 4.16321 9.71711C4.16321 8.59799 4.55303 7.68217 5.19271 6.96588C5.08957 6.70656 4.74641 5.6636 5.29093 4.25242C5.29093 4.25242 6.13012 3.97673 8.04056 5.30356C8.838 5.07571 9.69377 4.96241 10.544 4.95801C11.3936 4.96241 12.2488 5.07571 13.0475 5.30356C14.9567 3.97673 15.7946 4.25242 15.7946 4.25242C16.3404 5.6636 15.9972 6.70656 15.8947 6.96588C16.5356 7.68217 16.9223 8.59799 16.9223 9.71711C16.9223 13.6561 14.584 14.5228 12.3568 14.7765C12.7153 15.0931 13.0352 15.7187 13.0352 16.6754C13.0352 18.0457 13.0229 19.1516 13.0229 19.4877C13.0229 19.7622 13.2034 20.0813 13.7105 19.9812C17.6811 18.6223 20.5437 14.7821 20.5437 10.2534C20.5437 4.59042 16.066 0 10.5428 0Z" fill="#161514"/>
</svg>
