<svg width="36" height="20" xmlns="http://www.w3.org/2000/svg"><path d="M9.942 10.196c1.118.1 2.027.289 2.74.568.712.28 1.271.67 1.677 1.17.405.5.688 1.138.848 1.913l.615 2.853c.151.749.32 1.267.508 1.556.187.288.45.432.788.432.223 0 .417-.05.581-.148.165-.1.341-.262.528-.487l.374.338c-.49.568-1.017.978-1.583 1.23-.566.253-1.25.379-2.051.379-1.043 0-1.871-.225-2.486-.676-.615-.45-1.02-1.226-1.216-2.326l-.481-2.759c-.151-.901-.316-1.622-.494-2.163-.179-.541-.43-.972-.755-1.292-.326-.32-.76-.48-1.303-.48a11.785 11.785 0 011.71-.108zM36 0v.554c-.615.027-1.06.1-1.336.217-.276.117-.466.333-.568.649-.103.315-.154.82-.154 1.514v13.74c0 .694.051 1.198.154 1.514.102.315.292.532.568.65.276.116.721.188 1.336.215v.555c-1.016-.054-2.45-.081-4.303-.081-1.95 0-3.394.027-4.33.08v-.554c.66-.027 1.139-.099 1.437-.216a1.03 1.03 0 00.615-.649c.111-.316.167-.82.167-1.515V2.258l-6.588 17.39h-.441C18.105 8.29 15.64 2.335 15.167 1.785 14.456.96 14.131.876 13.817.771c-.313-.106-.721-.19-1.336-.217V0c.58.054 1.372.081 2.379.081 1.692 0 3.136-.027 4.33-.081l5.518 13.469L29.76.08h1.938C33.55.081 34.984.054 36 0zM8.459.005V.56c-.615.027-1.06.099-1.337.216-.276.117-.465.334-.567.65-.103.315-.154.82-.154 1.514v13.739c0 .694.051 1.199.154 1.514.102.316.291.532.567.65.277.117.722.189 1.337.216v.554c-.913-.05-2.16-.077-3.74-.08h-.403c-1.95 0-3.39.026-4.316.08v-.554c.615-.027 1.058-.1 1.33-.217.271-.117.458-.333.56-.649.103-.315.155-.82.155-1.514V2.939c0-.693-.052-1.198-.154-1.514-.103-.315-.292-.532-.568-.649C1.047.66.606.586 0 .56V.005c.865.05 2.176.078 3.933.081h.383C6.09.087 7.47.06 8.46.007zM9.819 2.3c.799 0 1.374.257 1.727.772.352.516.528 1.276.528 2.282 0 .623-.073 1.156-.218 1.6a2.016 2.016 0 01-.79 1.06c-.381.263-.913.395-1.593.395H8.69V3.88c0-.437.03-.767.09-.988.058-.222.166-.376.323-.463.157-.087.395-.13.715-.13z" fill="#323A5C" fill-rule="evenodd"/></svg>